<mxfile host="app.diagrams.net" agent="Mozilla/5.0 (Windows NT 10.0; Win64; x64) AppleWebKit/537.36 (KHTML, like Gecko) Chrome/131.0.0.0 Safari/537.36" version="26.0.1">
  <diagram name="페이지-1" id="PFRC0D8s-vz-cXyogZdn">
    <mxGraphModel dx="3500" dy="1740" grid="1" gridSize="10" guides="1" tooltips="1" connect="1" arrows="1" fold="1" page="1" pageScale="1" pageWidth="3300" pageHeight="4681" math="0" shadow="0">
      <root>
        <mxCell id="0" />
        <mxCell id="1" parent="0" />
        <mxCell id="o4NIW-_CmcYcTrLImoJY-16" value="" style="group;strokeWidth=2;" vertex="1" connectable="0" parent="1">
          <mxGeometry x="1800" y="160" width="520" height="798" as="geometry" />
        </mxCell>
        <mxCell id="o4NIW-_CmcYcTrLImoJY-11" value="" style="rounded=0;whiteSpace=wrap;html=1;" vertex="1" parent="o4NIW-_CmcYcTrLImoJY-16">
          <mxGeometry x="-600" width="1120" height="760" as="geometry" />
        </mxCell>
        <mxCell id="o4NIW-_CmcYcTrLImoJY-38" value="" style="ellipse;whiteSpace=wrap;html=1;aspect=fixed;strokeWidth=3;" vertex="1" parent="o4NIW-_CmcYcTrLImoJY-16">
          <mxGeometry x="120" y="230" width="280" height="280" as="geometry" />
        </mxCell>
        <mxCell id="o4NIW-_CmcYcTrLImoJY-39" value="그룹웨어 서비스" style="text;html=1;align=center;verticalAlign=middle;whiteSpace=wrap;rounded=0;fontSize=38;" vertex="1" parent="o4NIW-_CmcYcTrLImoJY-16">
          <mxGeometry x="180" y="280" width="160" height="200" as="geometry" />
        </mxCell>
        <mxCell id="o4NIW-_CmcYcTrLImoJY-49" value="" style="rounded=0;whiteSpace=wrap;html=1;" vertex="1" parent="o4NIW-_CmcYcTrLImoJY-16">
          <mxGeometry x="-690" y="170" width="230" height="400" as="geometry" />
        </mxCell>
        <mxCell id="o4NIW-_CmcYcTrLImoJY-59" style="edgeStyle=orthogonalEdgeStyle;rounded=0;orthogonalLoop=1;jettySize=auto;html=1;exitX=1;exitY=0.5;exitDx=0;exitDy=0;entryX=0;entryY=0;entryDx=0;entryDy=0;curved=1;strokeWidth=2;" edge="1" parent="o4NIW-_CmcYcTrLImoJY-16" source="o4NIW-_CmcYcTrLImoJY-49" target="o4NIW-_CmcYcTrLImoJY-38">
          <mxGeometry relative="1" as="geometry" />
        </mxCell>
        <mxCell id="o4NIW-_CmcYcTrLImoJY-60" style="edgeStyle=orthogonalEdgeStyle;rounded=0;orthogonalLoop=1;jettySize=auto;html=1;exitX=1;exitY=0.5;exitDx=0;exitDy=0;entryX=0;entryY=0.5;entryDx=0;entryDy=0;strokeWidth=2;" edge="1" parent="o4NIW-_CmcYcTrLImoJY-16" source="o4NIW-_CmcYcTrLImoJY-49" target="o4NIW-_CmcYcTrLImoJY-38">
          <mxGeometry relative="1" as="geometry" />
        </mxCell>
        <mxCell id="o4NIW-_CmcYcTrLImoJY-61" style="edgeStyle=orthogonalEdgeStyle;rounded=0;orthogonalLoop=1;jettySize=auto;html=1;exitX=1;exitY=0.5;exitDx=0;exitDy=0;entryX=0;entryY=1;entryDx=0;entryDy=0;curved=1;strokeWidth=2;" edge="1" parent="o4NIW-_CmcYcTrLImoJY-16" source="o4NIW-_CmcYcTrLImoJY-49" target="o4NIW-_CmcYcTrLImoJY-38">
          <mxGeometry relative="1" as="geometry" />
        </mxCell>
        <mxCell id="o4NIW-_CmcYcTrLImoJY-57" value="" style="shape=image;verticalLabelPosition=bottom;labelBackgroundColor=default;verticalAlign=top;aspect=fixed;imageAspect=0;image=data:image/jpeg,/9j/4QqDRXhpZgAATU0AKgAAAAgADAEAAAMAAAABBQAAAAEBAAMAAAABAtAAAAECAAMAAAADAAAAngEGAAMAAAABAAIAAAESAAMAAAABAAEAAAEVAAMAAAABAAMAAAEaAAUAAAABAAAApAEbAAUAAAABAAAArAEoAAMAAAABAAIAAAExAAIAAAAkAAAAtAEyAAIAAAAUAAAA2IdpAAQAAAABAAAA7AAAASQACAAIAAgACvyAAAAnEAAK/IAAACcQQWRvYmUgUGhvdG9zaG9wIENDIDIwMTcgKE1hY2ludG9zaCkAMjAxNzowODowOCAyMToyNjowNQAABJAAAAcAAAAEMDIyMaABAAMAAAAB//8AAKACAAQAAAABAAACbKADAAQAAAABAAABNAAAAAAAAAAGAQMAAwAAAAEABgAAARoABQAAAAEAAAFyARsABQAAAAEAAAF6ASgAAwAAAAEAAgAAAgEABAAAAAEAAAGCAgIABAAAAAEAAAj5AAAAAAAAAEgAAAABAAAASAAAAAH/2P/tAAxBZG9iZV9DTQAC/+4ADkFkb2JlAGSAAAAAAf/bAIQADAgICAkIDAkJDBELCgsRFQ8MDA8VGBMTFRMTGBEMDAwMDAwRDAwMDAwMDAwMDAwMDAwMDAwMDAwMDAwMDAwMDAENCwsNDg0QDg4QFA4ODhQUDg4ODhQRDAwMDAwREQwMDAwMDBEMDAwMDAwMDAwMDAwMDAwMDAwMDAwMDAwMDAwM/8AAEQgATwCfAwEiAAIRAQMRAf/dAAQACv/EAT8AAAEFAQEBAQEBAAAAAAAAAAMAAQIEBQYHCAkKCwEAAQUBAQEBAQEAAAAAAAAAAQACAwQFBgcICQoLEAABBAEDAgQCBQcGCAUDDDMBAAIRAwQhEjEFQVFhEyJxgTIGFJGhsUIjJBVSwWIzNHKC0UMHJZJT8OHxY3M1FqKygyZEk1RkRcKjdDYX0lXiZfKzhMPTdePzRieUpIW0lcTU5PSltcXV5fVWZnaGlqa2xtbm9jdHV2d3h5ent8fX5/cRAAICAQIEBAMEBQYHBwYFNQEAAhEDITESBEFRYXEiEwUygZEUobFCI8FS0fAzJGLhcoKSQ1MVY3M08SUGFqKygwcmNcLSRJNUoxdkRVU2dGXi8rOEw9N14/NGlKSFtJXE1OT0pbXF1eX1VmZ2hpamtsbW5vYnN0dXZ3eHl6e3x//aAAwDAQACEQMRAD8A9RhKE6SSloShOkkpaEoTpJKWhKE6SSloShVs/qmF09oOTZDnCWVt9z3f1WD/AKv6CxL/AK32EkY2KAOzrX6/5lY/9GKLJnxw0lLXsNSslkjHcvSQlC5ev635YP6TGre3wa5zT/0hYtbp/wBYen5r21Emi92ja7IG4+Fdg9j/AOr/ADiEOZxTNCWvj6VRywOgLpQlCZ1lbHMa5wDrCWsB5JALyG/2GOcpKZetCUJ0klLQlCdJJS0JQnSSU//Q9UhKEkklKhKEkklKhKElGx7K2OsscGsYC5zjoABq5xSUvCoda6menYnqVsNl1ntqG0loPey0t+jWz/prC6l9aMq95ZgH0KBoLCAbHfyvf7am/wDgv/FrL/aHUJn7XfP/ABr/APySp5ecjRjC724+n0YJ5xqI35orLbL7HX2vNtlhl9hMkn/X81RR2jLz7hWxhyMh2u5oAeRxNrxsbt/4W7/txalP1S6i8A221VT+aNzyPj/NtVKOKc7MYmXiwiEpbAlxExAPtIncYDYmSfzQ385dIz6nOkermadwyuD/AJz3v/6la3T+idP6e71KWF93HrWHc/X9382v/rbVNDk8sj6gIDx1/wCivjgmd9HMpw8+npreoZ7nPyMLbbQxxl1dTXb8hr3fn334++r/AIv/AK4uh07cKLhXc2yp3ubGywf1h9H/ADXLP6J1HGyMSrF9UHLx2Cu6s6O3MHpvcA76bdzfpsV6AjjkI38w6nWUoM8QIkC9x/0XThKEklKvVCUJJJKVCUJJJKf/0fVUkkklKSSSSUpc79b8tzaacJpgXEvt82sja3+1Y7/wNdEuU+uDHDNxrD9F1Tmg+bXAu/6tQc2SMMq60PoSx5iRA04KYmASe2qdM6dpjU9gspqPddE6azp+ExhaPXsAfe/uXfu/1KvoMWghY2RVk0V5FR3V2tDmnyKe6+mhm+6xtTP3nkNH3uW1ERjECPygaN4AACtkiqdR6hXg0hxb6t9p2Y9DTDrLD9Fjf3W/6Sz/AAaz8v6z4+8Y/Ta3Z2S/RgaCGT4z9J/9j9H/AMLWjdL6Xe249R6m8XdQeNrY+hSw/wCCpH0d3+kf/wCpLLWe7xnhx6/vT/Qh/wB9Jbx3pHXvLpFvYVD6MdrLXb7nS+544L3e6zb/ACN3tq/4JcFe8jNutqcWuF1j63tMEHe7a5pXb9W6g3p+DZkE/pI20t/esP0G/wDf3/yFwQEADmO6q87IDggP0df4MWcj0gdHuuh9RPUcBtr4FzCa7gONw/OH/GNLbFoLmvqaT+uD82az84sn/vq6VWuXmZ4oyO/8PSy45GUASpJJJSr1JJJJKf/S9VSSSSUpJJJJSlmde6Y7qGFtqA+0UnfTOknh1c/8I3/prTSTZwE4mJ2KCAQQer5sQQS1wLXNJa5rhBBH0mub+a5MSQCQJIGgXc9R6FgdQd6ljTXfEetXo4x+/O5ln9tqyj9TXT7c3TtNUn8LWrOnyeUGojiHe6/6TWlgmDpq0MxzOn0UV9L6lZYy8F9zGOAh2nvbs99G+f5pVaj0ku9TN+15NkyY2NB/tvsff/0q1sf8zX/9zR/2z/6mS/5mv/7mj/tn/wBTInBnJv29OkTISjH/ABpKOPJfy/S9F8T6wdDwmFuLhW1T9IhrNx/r2Ou3v/tJ7/riIIx8Uz2da4AD+zXv3f56j/zNf/3NH/bP/qZL/ma//uaP+2f/AFMpP6YBQiIj+r7a79dVAV5cLi5ufl593rZT97hIY0aMaD+bWz/V6r/7gBqST2C6P/ma/wD7mj/tr/1MtLpv1ewcB4u1vvHFlke3/imN9rP/AD4ohymaUvXpe8pHiWjDMnXTxK/1f6c/AwA20RfcfUtHgSAG1/2GN/z1ppJLRhEQiIjYCmyAAAB0UkkknJUkkkkp/9P1VJJJJSkkkklKSSSSU8+++wDIrZa6+1xJNrLrAR+mrZ6N1MfqNjmWenW+n/B12vU8qrPqhnvsiu+1tLMi4EBv2cNb9oa31sizc619ddv+l9P/AAS3UlF7Oh9Xbos4PFxG25rrm+lc65zbgQfottaMWl7mbfoVsuc99jP9HehNyn7abHPte91dT8at1j6nPLrLfVGza71rdvottpt/mq/9CugSS9o/vd/FXAe7m5dlYz2tybrKWbGHGDHObusL3eq3bX/Pv2+h+ifv9n/XEB2Y12J6T7yHtyHDJ2vIeyoXPbq4HfXV/Ns9T/B0rZSROM2dd76d08J7uGMs01l7rnih1eS3Hsc5x3kPZ9n2PM+rbt3/AGb/AAt1f836idlj25W03WfbG30tFO9xBrNVH2jdRJq2e69/rbf53/CLbSQ9o/vfgrh8VJJJKVcpJJJJSkkkklP/2f/tEhZQaG90b3Nob3AgMy4wADhCSU0EBAAAAAAADxwBWgADGyVHHAIAAAIAAAA4QklNBCUAAAAAABDNz/p9qMe+CQVwdq6vBcNOOEJJTQQ6AAAAAADXAAAAEAAAAAEAAAAAAAtwcmludE91dHB1dAAAAAUAAAAAUHN0U2Jvb2wBAAAAAEludGVlbnVtAAAAAEludGUAAAAASW1nIAAAAA9wcmludFNpeHRlZW5CaXRib29sAAAAAAtwcmludGVyTmFtZVRFWFQAAAABAAAAAAAPcHJpbnRQcm9vZlNldHVwT2JqYwAAAAVoIWg3i75/bgAAAAAACnByb29mU2V0dXAAAAABAAAAAEJsdG5lbnVtAAAADGJ1aWx0aW5Qcm9vZgAAAAlwcm9vZkNNWUsAOEJJTQQ7AAAAAAItAAAAEAAAAAEAAAAAABJwcmludE91dHB1dE9wdGlvbnMAAAAXAAAAAENwdG5ib29sAAAAAABDbGJyYm9vbAAAAAAAUmdzTWJvb2wAAAAAAENybkNib29sAAAAAABDbnRDYm9vbAAAAAAATGJsc2Jvb2wAAAAAAE5ndHZib29sAAAAAABFbWxEYm9vbAAAAAAASW50cmJvb2wAAAAAAEJja2dPYmpjAAAAAQAAAAAAAFJHQkMAAAADAAAAAFJkICBkb3ViQG/gAAAAAAAAAAAAR3JuIGRvdWJAb+AAAAAAAAAAAABCbCAgZG91YkBv4AAAAAAAAAAAAEJyZFRVbnRGI1JsdAAAAAAAAAAAAAAAAEJsZCBVbnRGI1JsdAAAAAAAAAAAAAAAAFJzbHRVbnRGI1B4bEBSAAAAAAAAAAAACnZlY3RvckRhdGFib29sAQAAAABQZ1BzZW51bQAAAABQZ1BzAAAAAFBnUEMAAAAATGVmdFVudEYjUmx0AAAAAAAAAAAAAAAAVG9wIFVudEYjUmx0AAAAAAAAAAAAAAAAU2NsIFVudEYjUHJjQFkAAAAAAAAAAAAQY3JvcFdoZW5QcmludGluZ2Jvb2wAAAAADmNyb3BSZWN0Qm90dG9tbG9uZwAAAAAAAAAMY3JvcFJlY3RMZWZ0bG9uZwAAAAAAAAANY3JvcFJlY3RSaWdodGxvbmcAAAAAAAAAC2Nyb3BSZWN0VG9wbG9uZwAAAAAAOEJJTQPtAAAAAAAQAEgAAAABAAIASAAAAAEAAjhCSU0EJgAAAAAADgAAAAAAAAAAAAA/gAAAOEJJTQQNAAAAAAAEAAAAHjhCSU0EGQAAAAAABAAAAB44QklNA/MAAAAAAAkAAAAAAAAAAAEAOEJJTScQAAAAAAAKAAEAAAAAAAAAAjhCSU0D9QAAAAAASAAvZmYAAQBsZmYABgAAAAAAAQAvZmYAAQChmZoABgAAAAAAAQAyAAAAAQBaAAAABgAAAAAAAQA1AAAAAQAtAAAABgAAAAAAAThCSU0D+AAAAAAAcAAA/////////////////////////////wPoAAAAAP////////////////////////////8D6AAAAAD/////////////////////////////A+gAAAAA/////////////////////////////wPoAAA4QklNBAgAAAAAABAAAAABAAACQAAAAkAAAAAAOEJJTQQeAAAAAAAEAAAAADhCSU0EGgAAAAADTwAAAAYAAAAAAAAAAAAAATQAAAJsAAAADQBtAGEAeAByAGUAcwBkAGUAZgBhAHUAbAB0AAAAAQAAAAAAAAAAAAAAAAAAAAAAAAABAAAAAAAAAAAAAAJsAAABNAAAAAAAAAAAAAAAAAAAAAABAAAAAAAAAAAAAAAAAAAAAAAAABAAAAABAAAAAAAAbnVsbAAAAAIAAAAGYm91bmRzT2JqYwAAAAEAAAAAAABSY3QxAAAABAAAAABUb3AgbG9uZwAAAAAAAAAATGVmdGxvbmcAAAAAAAAAAEJ0b21sb25nAAABNAAAAABSZ2h0bG9uZwAAAmwAAAAGc2xpY2VzVmxMcwAAAAFPYmpjAAAAAQAAAAAABXNsaWNlAAAAEgAAAAdzbGljZUlEbG9uZwAAAAAAAAAHZ3JvdXBJRGxvbmcAAAAAAAAABm9yaWdpbmVudW0AAAAMRVNsaWNlT3JpZ2luAAAADWF1dG9HZW5lcmF0ZWQAAAAAVHlwZWVudW0AAAAKRVNsaWNlVHlwZQAAAABJbWcgAAAABmJvdW5kc09iamMAAAABAAAAAAAAUmN0MQAAAAQAAAAAVG9wIGxvbmcAAAAAAAAAAExlZnRsb25nAAAAAAAAAABCdG9tbG9uZwAAATQAAAAAUmdodGxvbmcAAAJsAAAAA3VybFRFWFQAAAABAAAAAAAAbnVsbFRFWFQAAAABAAAAAAAATXNnZVRFWFQAAAABAAAAAAAGYWx0VGFnVEVYVAAAAAEAAAAAAA5jZWxsVGV4dElzSFRNTGJvb2wBAAAACGNlbGxUZXh0VEVYVAAAAAEAAAAAAAlob3J6QWxpZ25lbnVtAAAAD0VTbGljZUhvcnpBbGlnbgAAAAdkZWZhdWx0AAAACXZlcnRBbGlnbmVudW0AAAAPRVNsaWNlVmVydEFsaWduAAAAB2RlZmF1bHQAAAALYmdDb2xvclR5cGVlbnVtAAAAEUVTbGljZUJHQ29sb3JUeXBlAAAAAE5vbmUAAAAJdG9wT3V0c2V0bG9uZwAAAAAAAAAKbGVmdE91dHNldGxvbmcAAAAAAAAADGJvdHRvbU91dHNldGxvbmcAAAAAAAAAC3JpZ2h0T3V0c2V0bG9uZwAAAAAAOEJJTQQoAAAAAAAMAAAAAj/wAAAAAAAAOEJJTQQRAAAAAAABAQA4QklNBBQAAAAAAAQAAAABOEJJTQQMAAAAAAkVAAAAAQAAAJ8AAABPAAAB4AAAlCAAAAj5ABgAAf/Y/+0ADEFkb2JlX0NNAAL/7gAOQWRvYmUAZIAAAAAB/9sAhAAMCAgICQgMCQkMEQsKCxEVDwwMDxUYExMVExMYEQwMDAwMDBEMDAwMDAwMDAwMDAwMDAwMDAwMDAwMDAwMDAwMAQ0LCw0ODRAODhAUDg4OFBQODg4OFBEMDAwMDBERDAwMDAwMEQwMDAwMDAwMDAwMDAwMDAwMDAwMDAwMDAwMDAz/wAARCABPAJ8DASIAAhEBAxEB/90ABAAK/8QBPwAAAQUBAQEBAQEAAAAAAAAAAwABAgQFBgcICQoLAQABBQEBAQEBAQAAAAAAAAABAAIDBAUGBwgJCgsQAAEEAQMCBAIFBwYIBQMMMwEAAhEDBCESMQVBUWETInGBMgYUkaGxQiMkFVLBYjM0coLRQwclklPw4fFjczUWorKDJkSTVGRFwqN0NhfSVeJl8rOEw9N14/NGJ5SkhbSVxNTk9KW1xdXl9VZmdoaWprbG1ub2N0dXZ3eHl6e3x9fn9xEAAgIBAgQEAwQFBgcHBgU1AQACEQMhMRIEQVFhcSITBTKBkRShsUIjwVLR8DMkYuFygpJDUxVjczTxJQYWorKDByY1wtJEk1SjF2RFVTZ0ZeLys4TD03Xj80aUpIW0lcTU5PSltcXV5fVWZnaGlqa2xtbm9ic3R1dnd4eXp7fH/9oADAMBAAIRAxEAPwD1GEoTpJKWhKE6SSloShOkkpaEoTpJKWhKFWz+qYXT2g5NkOcJZW33Pd/VYP8Aq/oLEv8ArfYSRjYoA7Otfr/mVj/0YosmfHDSUtew1KyWSMdy9JCULl6/rflg/pMat7fBrnNP/SFi1un/AFh6fmvbUSaL3aNrsgbj4V2D2P8A6v8AOIQ5nFM0Ja+PpVHLA6AulCUJnWVscxrnAOsJawHkkAvIb/YY5ykpl60JQnSSUtCUJ0klLQlCdJJT/9D1SEoSSSUqEoSSSUqEoSUbHsrY6yxwaxgLnOOgAGrnFJS8Kh1rqZ6diepWw2XWe2obSWg97LS36NbP+msLqX1oyr3lmAfQoGgsIBsd/K9/tqb/AOC/8Wsv9odQmftd8/8AGv8A/JKnl5yNGMLvbj6fRgnnGojfmistsvsdfa822WGX2EySf9fzVFHaMvPuFbGHIyHa7mgB5HE2vGxu3/hbv+3FqU/VLqLwDbbVVP5o3PI+P821Uo4pzsxiZeLCISlsCXETEA+0idxgNiZJ/NDfzl0jPqc6R6uZp3DK4P8AnPe//qVrdP6J0/p7vUpYX3cetYdz9f3fza/+ttU0OTyyPqAgPHX/AKK+OCZ30cynDz6emt6hnuc/IwtttDHGXV1NdvyGvd+fffj76v8Ai/8Ari6HTtwouFdzbKne5sbLB/WH0f8ANcs/onUcbIxKsX1QcvHYK7qzo7cwem9wDvpt3N+mxXoCOOQjfzDqdZSgzxAiQL3H/RdOEoSSUq9UJQkkkpUJQkkkp//R9VSSSSUpJJJJSlzv1vy3NppwmmBcS+3zayNrf7Vjv/A10S5T64McM3GsP0XVOaD5tcC7/q1BzZIwyrrQ+hLHmJEDTgpiYBJ7ap0zp2mNT2Cymo910TprOn4TGFo9ewB97+5d+7/Uq+gxaCFjZFWTRXkVHdXa0OafIp7r6aGb7rG1M/eeQ0fe5bURGMQI/KBo3gAAK2SKp1HqFeDSHFvq32nZj0NMOssP0WN/db/pLP8ABrPy/rPj7xj9NrdnZL9GBoIZPjP0n/2P0f8AwtaN0vpd7bj1Hqbxd1B42tj6FLD/AIKkfR3f6R//AKkstZ7vGeHHr+9P9CH/AH0lvHekde8ukW9hUPox2stdvudL7njgvd7rNv8AI3e2r/glwV7yM262pxa4XWPre0wQd7trmldv1bqDen4NmQT+kjbS396w/Qb/AN/f/IXBAQAOY7qrzsgOCA/R1/gxZyPSB0e66H1E9RwG2vgXMJruA43D84f8Y0tsWgua+ppP64PzZrPziyf++rpVa5eZnijI7/w9LLjkZQBKkkklKvUkkkkp/9L1VJJJJSkkkklKWZ17pjuoYW2oD7RSd9M6SeHVz/wjf+mtNJNnATiYnYoIBBB6vmxBBLXAtc0lrmuEEEfSa5v5rkxJAJAkgaBdz1HoWB1B3qWNNd8R61ejjH787mWf22rKP1NdPtzdO01Sfwtas6fJ5QaiOId7r/pNaWCYOmrQzHM6fRRX0vqVljLwX3MY4CHae9uz30b5/mlVqPSS71M37Xk2TJjY0H+2+x9//SrWx/zNf/3NH/bP/qZL/ma//uaP+2f/AFMicGcm/b06RMhKMf8AGko48l/L9L0XxPrB0PCYW4uFbVP0iGs3H+vY67e/+0nv+uIgjHxTPZ1rgAP7Ne/d/nqP/M1//c0f9s/+pkv+Zr/+5o/7Z/8AUyk/pgFCIiP6vtrv11UBXlwuLm5+Xn3etlP3uEhjRoxoP5tbP9Xqv/uAGpJPYLo/+Zr/APuaP+2v/Uy0um/V7BwHi7W+8cWWR7f+KY32s/8APiiHKZpS9el7ykeJaMMyddPEr/V/pz8DADbRF9x9S0eBIAbX/YY3/PWmkktGERCIiNgKbIAAAHRSSSSclSSSSSn/0/VUkkklKSSSSUpJJJJTz777AMitlrr7XEk2susBH6atno3Ux+o2OZZ6db6f8HXa9Tyqs+qGe+yK77W0syLgQG/Zw1v2hrfWyLNzrX112/6X0/8ABLdSUXs6H1duizg8XEbbmuub6VzrnNuBB+i21oxaXuZt+hWy5z32M/0d6E3Kftpsc+173V1Pxq3WPqc8ust9UbNrvWt2+i22m3+ar/0K6BJL2j+938VcB7ubl2VjPa3JuspZsYcYMc5u6wvd6rdtf8+/b6H6J+/2f9cQHZjXYnpPvIe3IcMna8h7Khc9urgd9dX82z1P8HStlJE4zZ13vp3Twnu4YyzTWXuueKHV5LcexznHeQ9n2fY8z6tu3f8AZv8AC3V/zfqJ2WPblbTdZ9sbfS0U73EGs1UfaN1EmrZ7r3+tt/nf8IttJD2j+9+CuHxUkkkpVykkkklKSSSSU//ZADhCSU0EIQAAAAAAXQAAAAEBAAAADwBBAGQAbwBiAGUAIABQAGgAbwB0AG8AcwBoAG8AcAAAABcAQQBkAG8AYgBlACAAUABoAG8AdABvAHMAaABvAHAAIABDAEMAIAAyADAAMQA3AAAAAQA4QklNBAYAAAAAAAcABAEBAAEBAP/hDcdodHRwOi8vbnMuYWRvYmUuY29tL3hhcC8xLjAvADw/eHBhY2tldCBiZWdpbj0i77u/IiBpZD0iVzVNME1wQ2VoaUh6cmVTek5UY3prYzlkIj8+IDx4OnhtcG1ldGEgeG1sbnM6eD0iYWRvYmU6bnM6bWV0YS8iIHg6eG1wdGs9IkFkb2JlIFhNUCBDb3JlIDUuNi1jMTM4IDc5LjE1OTgyNCwgMjAxNi8wOS8xNC0wMTowOTowMSAgICAgICAgIj4gPHJkZjpSREYgeG1sbnM6cmRmPSJodHRwOi8vd3d3LnczLm9yZy8xOTk5LzAyLzIyLXJkZi1zeW50YXgtbnMjIj4gPHJkZjpEZXNjcmlwdGlvbiByZGY6YWJvdXQ9IiIgeG1sbnM6eG1wTU09Imh0dHA6Ly9ucy5hZG9iZS5jb20veGFwLzEuMC9tbS8iIHhtbG5zOnN0RXZ0PSJodHRwOi8vbnMuYWRvYmUuY29tL3hhcC8xLjAvc1R5cGUvUmVzb3VyY2VFdmVudCMiIHhtbG5zOmRjPSJodHRwOi8vcHVybC5vcmcvZGMvZWxlbWVudHMvMS4xLyIgeG1sbnM6cGhvdG9zaG9wPSJodHRwOi8vbnMuYWRvYmUuY29tL3Bob3Rvc2hvcC8xLjAvIiB4bWxuczp4bXA9Imh0dHA6Ly9ucy5hZG9iZS5jb20veGFwLzEuMC8iIHhtcE1NOkRvY3VtZW50SUQ9ImFkb2JlOmRvY2lkOnBob3Rvc2hvcDo4MTY0ZDM2YS1iY2NiLTExN2EtYmQzNC1hN2MwNTg2M2JiMWUiIHhtcE1NOkluc3RhbmNlSUQ9InhtcC5paWQ6NGY4OGVhM2MtYjEwOC00YjdkLWFmYzQtODBjMzU4MzE5OTg5IiB4bXBNTTpPcmlnaW5hbERvY3VtZW50SUQ9IjU1MDlBQjVCMEE1QTg1NTNGQjgyNzRFQjFDRTk1Q0M4IiBkYzpmb3JtYXQ9ImltYWdlL2pwZWciIHBob3Rvc2hvcDpDb2xvck1vZGU9IjMiIHBob3Rvc2hvcDpJQ0NQcm9maWxlPSIiIHhtcDpDcmVhdGVEYXRlPSIyMDE3LTA4LTA4VDIxOjI0OjI1KzA4OjAwIiB4bXA6TW9kaWZ5RGF0ZT0iMjAxNy0wOC0wOFQyMToyNjowNSswODowMCIgeG1wOk1ldGFkYXRhRGF0ZT0iMjAxNy0wOC0wOFQyMToyNjowNSswODowMCI+IDx4bXBNTTpIaXN0b3J5PiA8cmRmOlNlcT4gPHJkZjpsaSBzdEV2dDphY3Rpb249InNhdmVkIiBzdEV2dDppbnN0YW5jZUlEPSJ4bXAuaWlkOjU4OWUyNjk1LTA2MTMtNGQzNy1iMDM4LWNhYzY0YjA1YzlmZiIgc3RFdnQ6d2hlbj0iMjAxNy0wOC0wOFQyMToyNjowNSswODowMCIgc3RFdnQ6c29mdHdhcmVBZ2VudD0iQWRvYmUgUGhvdG9zaG9wIENDIDIwMTcgKE1hY2ludG9zaCkiIHN0RXZ0OmNoYW5nZWQ9Ii8iLz4gPHJkZjpsaSBzdEV2dDphY3Rpb249InNhdmVkIiBzdEV2dDppbnN0YW5jZUlEPSJ4bXAuaWlkOjRmODhlYTNjLWIxMDgtNGI3ZC1hZmM0LTgwYzM1ODMxOTk4OSIgc3RFdnQ6d2hlbj0iMjAxNy0wOC0wOFQyMToyNjowNSswODowMCIgc3RFdnQ6c29mdHdhcmVBZ2VudD0iQWRvYmUgUGhvdG9zaG9wIENDIDIwMTcgKE1hY2ludG9zaCkiIHN0RXZ0OmNoYW5nZWQ9Ii8iLz4gPC9yZGY6U2VxPiA8L3htcE1NOkhpc3Rvcnk+IDwvcmRmOkRlc2NyaXB0aW9uPiA8L3JkZjpSREY+IDwveDp4bXBtZXRhPiAgICAgICAgICAgICAgICAgICAgICAgICAgICAgICAgICAgICAgICAgICAgICAgICAgICAgICAgICAgICAgICAgICAgICAgICAgICAgICAgICAgICAgICAgICAgICAgICAgICAgICAgICAgICAgICAgICAgICAgICAgICAgICAgICAgICAgICAgICAgICAgICAgICAgICAgICAgICAgICAgICAgICAgICAgICAgICAgICAgICAgICAgICAgICAgICAgICAgICAgICAgICAgICAgICAgICAgICAgICAgICAgICAgICAgICAgICAgICAgICAgICAgICAgICAgICAgICAgICAgICAgICAgICAgICAgICAgICAgICAgICAgICAgICAgICAgICAgICAgICAgICAgICAgICAgICAgICAgICAgICAgICAgICAgICAgICAgICAgICAgICAgICAgICAgICAgICAgICAgICAgICAgICAgICAgICAgICAgICAgICAgICAgICAgICAgICAgICAgICAgICAgICAgICAgICAgICAgICAgICAgICAgICAgICAgICAgICAgICAgICAgICAgICAgICAgICAgICAgICAgICAgICAgICAgICAgICAgICAgICAgICAgICAgICAgICAgICAgICAgICAgICAgICAgICAgICAgICAgICAgICAgICAgICAgICAgICAgICAgICAgICAgICAgICAgICAgICAgICAgICAgICAgICAgICAgICAgICAgICAgICAgICAgICAgICAgICAgICAgICAgICAgICAgICAgICAgICAgICAgICAgICAgICAgICAgICAgICAgICAgICAgICAgICAgICAgICAgICAgICAgICAgICAgICAgICAgICAgICAgICAgICAgICAgICAgICAgICAgICAgICAgICAgICAgICAgICAgICAgICAgICAgICAgICAgICAgICAgICAgICAgICAgICAgICAgICAgICAgICAgICAgICAgICAgICAgICAgICAgICAgICAgICAgICAgICAgICAgICAgICAgICAgICAgICAgICAgICAgICAgICAgICAgICAgICAgICAgICAgICAgICAgICAgICAgICAgICAgICAgICAgICAgICAgICAgICAgICAgICAgICAgICAgICAgICAgICAgICAgICAgICAgICAgICAgICAgICAgICAgICAgICAgICAgICAgICAgICAgICAgICAgICAgICAgICAgICAgICAgICAgICAgICAgICAgICAgICAgICAgICAgICAgICAgICAgICAgICAgICAgICAgICAgICAgICAgICAgICAgICAgICAgICAgICAgICAgICAgICAgICAgICAgICAgICAgICAgICAgICAgICAgICAgICAgICAgICAgICAgICAgICAgICAgICAgICAgICAgICAgICAgICAgICAgICAgICAgICAgICAgICAgICAgICAgICAgICAgICAgICAgICAgICAgICAgICAgICAgICAgICAgICAgICAgICAgICAgICAgICAgICAgICAgICAgICAgICAgICAgICAgICAgICAgICAgICAgICAgICAgICAgICAgICAgICAgICAgICAgICAgICAgICAgICAgICAgICAgICAgICAgICAgICAgICAgICAgICAgICAgICAgICAgICAgICAgICAgICAgICAgICAgICAgICAgICAgICAgICAgICAgICAgICAgICAgICAgICAgICAgICAgICAgICAgICAgICAgICAgICAgICAgICAgICAgICAgICAgICAgICAgICAgICAgICAgICAgICAgICAgICAgICAgICAgICAgICAgICAgICAgICAgICAgICAgICAgICAgICAgICAgICAgICAgICAgICAgICAgICAgICAgICAgICAgICAgICAgICAgICAgICAgICAgICAgICAgICAgICAgICAgICAgICAgICAgICAgICAgICAgICAgICAgICAgICAgICAgICAgICAgICAgICAgICAgICAgICAgICAgICAgICAgICAgICAgICAgICAgICAgICAgICAgICAgICAgICAgICAgICAgICAgICAgICAgICAgICAgICAgICAgICAgICAgICAgICAgICAgICAgICAgICAgICAgICAgICAgICAgICAgICAgICAgICAgICAgICAgICAgICAgICAgICAgICAgICAgICAgICAgICAgICAgICAgICAgICAgICAgICAgICAgICAgICAgICAgICAgICAgICAgICAgICAgICAgICAgICAgICAgICAgICAgICAgICAgICAgICAgICAgICAgICAgICAgICAgICAgICAgICAgICAgICAgICAgICAgICAgICAgICAgICAgICAgICAgICAgICAgICAgICAgICAgICAgICAgICAgICAgICAgICAgICAgICAgICAgICAgICAgICAgICAgICAgICAgICAgICAgICAgICAgICAgICAgICAgICAgICAgICAgICAgICAgICAgICAgICAgICAgICAgICAgICAgICAgICAgICAgICAgICAgICAgICAgICAgICAgICAgICAgICAgICAgICAgICAgICAgICAgICAgICAgICAgICAgICAgICAgICAgICAgICAgICAgICAgICAgICAgICAgICAgICAgIDw/eHBhY2tldCBlbmQ9InciPz7/7gAhQWRvYmUAZAAAAAABAwAQAwIDBgAAAAAAAAAAAAAAAP/bAIQABgQEBAUEBgUFBgkGBQYJCwgGBggLDAoKCwoKDBAMDAwMDAwQDAwMDAwMDAwMDAwMDAwMDAwMDAwMDAwMDAwMDAEHBwcNDA0YEBAYFA4ODhQUDg4ODhQRDAwMDAwREQwMDAwMDBEMDAwMDAwMDAwMDAwMDAwMDAwMDAwMDAwMDAwM/8IAEQgBNAJsAwERAAIRAQMRAf/EAPkAAQACAgMBAAAAAAAAAAAAAAABBgUHAgMECAEBAAIDAQAAAAAAAAAAAAAAAAEEAgMFBhAAAQMDAQgBAwQABAQHAAAAAQACAxEEBQYQIDBQITESBxQTFRdAQSIygCMWN2AzJjZwQzQlNSdHEQACAQIEAQUIDgcDCwUAAAABAgMRBAAhMRIFQVEiMhMwUGFxgZGhkhAgsdFCUmJygqIjkxQ0wbLCQ3MVBkDSNYDwM1Njg7PDJFR0YOHT40QSAAECAwMGCA0EAwEAAAAAAAEAESExAhAgEjBQ8EHRImGRMlJygpKiQGBRcYGhwUJistLyA4DC4hNwsfHh/9oADAMBAQIRAxEAAAD6iAAAAIJBBIAAAAAAAAAAAAAAAAAAAAAAAAAAAAAAABIAAAAAAAAAAAAAAAAAAAAAAAAAAAAAAAAAAAAAAAAAAAAAAAAAAAAAAAAAAAAAAAAAAAAAAAAAAAAAJAAAAAAAAAAAAAAAAAAAAAAAAAAAAAAAAAAAAAAAAAAAAAAAAAAAAAAAAAAAAAAAAAAAAAAAAAAAAAAAAAAAAAAAAAAAAAAAgMbo14GtqxtfDrRyMjuzz1rblN+2ZBMEglEJAAAAAAAAAAAAASAAAAAAAAAAAAAAAAdeCk82pR+ZUwlPSiEwZIEJZbfsu/WuXnqXO/KUhwhzkAAAAAAAAAAAAAAAAAAAAAAAAAAAAAK5Rr6q4dDFVdSITKISABJA99jZtPt9C19CzwiNccejsns3pmQAAAAAAAAAAAAJAAAAAAAAAAAAAAAhReZU1b5/ncUIkgAAAAkTLYvau+rPZWaNfb/ouj255CQQASQAAAAAAAAASAAAAAAAAAAAAAAmIijcupqvhc6MIJTCAAAACSBKWxe3fsNnYym03rAAAAAAAAAAAAAEgAAAAAAAAAAAAAFdp6NKeX5XCIAAAAAAAJvHWt7V7vR62Ou+PT2X2rwAAAAAAAAAAAAAAAAAAAAAAAAAiEkSiFTo16xz61Yo6MZo1xEJIAAAAllHYy2T3L2wetdkGseJz9ndvoSJAAAAAAAAAAAAAAAAAAAAAAAAQdOEU3m1alQrYapq6Uds5ZbfnBha2ryasAAAAOWU27oW9kdq3l7G6ZDia749K99S169mYAAAAAAAAAAAAAAAAAAAAAAAgFU51fVfC5+P06gESmEEz2S64gJy9Wc+3Oe7PP17M8juyztzdaru/Ib9gAQiVVoVu1nZb26ZAAAAAAAAAAAAAAAAAAAAAAARCicupq3gc7ihAAAJlEZi3YvvVtWu/Y92zJMyJIJSAIQjzxHpyyxWjXrHhUtm9y7lbGyQAAAAAAAAAAAAAAAAAAAAACIVejW015vm8YxRKYQASBOxeze2P2LvZnIAAAAEGHr6/Zsn27M+vGPnTxnD5Z57F7NzY3Yu8plBIAAAAAAAAACQAAAAAAAAAIdWEaG8tyMZX1AAAEpjY3a6GyexdmUyAAAAAiGv+VTv/VucpRD5z8bxOuMSLz1b21e70OckgAAAAAAAAAAAAAAAAAAABSuXW1J5/lwIAAAnLWc97eq7PbkAAAAAHGIofLqZixustzdMoh85+N4nXGJKW2vQdK7dG1OQAAAAAAAAAAAAAAAAAAAAae83y6fz66IAAAG0O/0dgdW5MgAAAAIKnza9OoVtueg6PKQ6cY+dfGcSJhAnI7s9+et7HZlIAAAAAAAAAAAAAAAAAAAA0H5PjYqtgQAAAN4ep7Fgt7ZkAAAAhxlUObW1rxqG7vS9b27skIhg62nRfluUYoAbr9R1bNdsAAAAAAAAAAAAAAAAAAAAD598jxfBoxIAAAS3z6vsZextmQAAAHVjGtuLRo3Lq7q9N085a3SIcZa/5FPWHB5wDIxnZncv7F7N0AAAAAAAAAAAAAAAAAAAAj5/8hx8dpwIAAARG5fT9e13t8yAAiAgq9KvrHh0PHqw3L6TqZ+3uAHDGNFeX5WGq6EAkjLYvat7M7fQAAAAAAAAAAAAAAAAAAAAGlvNcqr0K6AAACF16tvbfoOnMwAIPBp11SjopHJqYGrpsF3dt30HTyW7OZAQUflU9T+f5wACctk9u5sjs3wAAAAAAAAAAAAAAAAAAAENfcmnq/hc5AAAAnlnG3PQdS4dCz5deOAraa3R0VynXwVbXGuMjZ2bE7F289O1zykEQlCuU9GmfNcvoxhEABLcXpOpb+hZAAAAAAAAAAAAAAAAAAAAHi04aD8pyPPrwAAAmZmZ9e3PsMfq1whD2bNlq6G+39G1aLm/nlMzBIHl14ULk1dd8ah04QmSAGU+icvoD1/Y9OeQAAAAAAAAAAAAAAAAAAAAjFr3j0tY8WgQgAANpeg6N56drR3leVhtGvL7tlmv2LBb29mU+jPLnlMnXEeXVjjNOGAqaaxRr9GGCJSRATIMdi9m/svtX5kAAAAAAAAAAAAAAAAAAAAEOCNQ+e51P5tRAAAXnr3bx0renvO8vH6MJyiMSQRCZQCSCZRAAARLLHOXLO7fTdPvyykAAAAAAAAAAAAAAAAAAAAAQ6kau4POovLqxEIAAJlEAJAIkJEAAlEABJDP3t+4vQ9TIbsgAAAAAAAAAAAAAAAAAAAAAAhxlWqOjXnHpVunX4YYkgAAAAAAAAAJZHbtvvXuX3rW+3JKQAAAAAAAAAAAAAAAAAAAAAAAB5deGGra+jGICAAAAAAAABynLIbM8xZzmZAAAAAAAAAAAAAAAAAAAAAAAAAAQiQEIAAAAAAAAlKEiQAAAAAAAAAAAAAAAAAAAAAAAA4YqrUr5TZnymcZp15y1tx+jHyY4WGzv8eEcWOS3Z+DVh7NmVXp6c/Z2+/blxhVaWjN2NkJyO3KImrU9GU35d05e3bn4NWHYYStry9nLJ7dsyAAAAAAAAAAAAAAAAAAAAAAgrNHR14Y5WzvqdGrbL9ip0avDXNt6FmrUNE549GMZexu8OnXOeVos7fDisVrbS+dWzdjZ5oYKpov3VuVKlX9yaxV1+/PK4dLfSOXU9ljZk9mdWo6Nkdi5ymQAAAAAAAAAAAAAAAAAAAAAEOjGKPzq3VhhEZd2xl926sUqvRrXfr2a9R088spl5teHZOVt6G+nc2tsPrXaBy6l96tqShcqnfurcovLrXXpWKLzqvoTb+hYpPMrezdnZbu6ncytferc55AAAAAAAAAAAAAAAAAAAAAAEMNq11mjp88a/VlsvPRscmVF5lO2X7Nbq6fPrx55zcb1nV/FoWy/vxeqO3GL11bVeqa6/V05HZnhNOrIbNnt2Th9GtC03N9WqaOSMpv243Tjwxw2J173JAAAAAAAAAAAAAAAAAAAAAAAHHGJymQIRMSkhEhKIiZmMYnKQIxicpjFMxCUQyTExETlMBEpAAAAAAAAAAAAAAAAAAAAAAAAAAAAAAAAAAAAAAAAAAAAAAAAAAAAAAAAAAAAAAAAAAAAAAAAAAAAAAAAAAAAAAAAAAAAAAAAAAAAAAAAAAAAAAAAAAAAAAAAAAAAAAAAA//2gAIAQIAAQUA/wAU9FVF1E+5jan5KII5htfuy+7gJmUY5Nu4yh4lGqqqbac+fJ4ifJholvpHoknZ5FVVSqlA0MdzI0w5NRyteNhVVXndVc3jYhcXjpDuV21O3qorh0Ztr9r0E94aLW7Lpx050TRXt+GAlzj0HDqQvFAlWGRqr666XEBgQIdzilUOqv7ygcaqvGpVeQCsLQuOSi847CTzj5xd3Ija5xJr+gssf5IJzfJuNd4v5mV1XkqqqubMSl+KIElpI1UA4dAg1MY5xtccAgEex7zDwuq9D35k+RrRNlGNUmTeUbqVy+RIELmUFuSkTnxyJ7KcJsZcYcY9xt7dsYpuZUeKiNWHmJKur5sYnunPQHTdBoqkrsv5FBhKEDyhayFCxlX26YqPFvTMZG1RwMbu/sFfsrHjXVh68wKvb4MBJceg3xshsHvMOODU23YEGAI02EoE7K7SiaBrq7LlnlHZ3v0mw3TZOXtNVf3Hg2R9SO1N+vWzxyaBuU4NzN9NsbPEJ/Zw6eZabTI1Q6g9EOVEp7vEXcxkfTfKKsLMFBU4jq0Y4XEo7I9njo7u4kKwvC0g+QHK8nL4REcAq3gMrw0AcQFX1zQWMH02AU2FSFHummhx1x5NaKcryry6Vx4OKjo0cW9vhG2ztnSPHXa89D2PfZbSmOQOryu5NZBwbFtIh34J2Xd6IxHE6Z8MQjFEezlfP8YnHcPawf5RcqnP+YOAFZ/8od+C54aLzIFNifI61tmxN2HZlZOlNre7eqw76jlVw2kg4Du1g/yhG9VEIminyDI1cXr5DFC+Q2to2IbjjQXkvm/cpRYjvyrKM8XHgO7Y248X/vuVon3DApskxqlvpXpwBVrZveoIGxjdvrrxB6ndxLeVFZWKoPAJomvINneBwqSnTtapMhG1SZdykvZHoyEryCjtJJFbY4NQAG7VXN22MSyF73d9pFUXArHMozlUkYe2Vng7fBITA5xMErF8iRF73bKpkEj1HinFQ2EbEG0Vdp2OlDVc5NSPLiBRd9xp628Xm6Nga3lTe+StqpwVfEbpKx9s2j4w4XsYa8dUyJiiltmIZGEL7lEUL+JfPiXzYkb+II5SNPyrAJMm4p9w928F4qqxtrQnvyqiIBF9Ylh6bxorG6axPvWUuJfqPcECAv3qqroqjZVV2VVTvFOqBZWheY2hrRy1zQ4XePLUWUVFSiruVO5U8Ku71RACtbJ8qhhEY5hcWLJFLjpGJ8LmofpgmWkrzb4toTGhvMyKowsKdZRlfbol9uiX26Jfbol9uiX26Jfbol9uiX26Jfbol9uiX26Jfbol9uiX26Jfbol9uiX26Jfbol9uiQx8SbZxBNaBziip+iKpzQmifetBhuWPUtw2MfcIwo5WuUt61hbfxlROD2tma50tw1iZ2MoD3PDQ6/jrHMx+wmidfxtMEzJAJx5hAlOyDAorgPUswjAPSWUNM07WN+4MUVy2RAnl985wgs2M+kImMOSFXi2iBgaGTyNDrk20RWOcQWRj5WTb5Pspy4zE/Jvnjyito2thtQ1wPXISEMitY2Mjtmxu8T8t3VX8ha21tmtZcM+lJlDWIdVkHH6mRoI4o2eNyz6DqcucKiSMPaceWhsssUuSJJEVzW1tfpm4jLrm8EsTILdjBG0fKvx/m3bDG7zbJPeEfWexxb5TNmd3ybSjRAdOvylkh/AGoydK5JpMcZoMgKvyh/yYz/HJVKBJ5ce0znAC/LR4OlmvmOLgKoUKfEflTMa8WJeGwsJuLqMukLQ4QWro7m8g+oor40tInuerqEyMhvS1WrpJHyksnF+5St+RE28MQ+k+aW9g+qyK9+m2Nr5ZciCYm3rwGNlndy+iLAVTaAAqbQAiBsoNng1U2loOzxFaICic0HZROYDsP+AX/9oACAEDAAEFAP8AFNVVVEaBOmaEboI3YXzAvmhC7BQlBQI2+X/AJcApLoBOnJXkTsoqBUC6L+SZM4KO6CbICunP6UUk4AklJ4NdnZMmIMVwHIiq8w1QTVfzqqmuKIuJNOJQIVCtrg1uZAU+PwTDVvNwgFczdCa8cGi7G3h8jO3yZaOqznE8viC4u/QBQW5JBAVFbHxdzWipRVCliDkbXo6FzVQbK8CioiaJjS5RWtCBRUQTuko7czc8BPugAbkozOX1XoTOQncEXsci1U4IYSo7VMgA3G97kUMRq3mFKqqlnDVJKTuVR21VdgqV9N6ELyhbuXxSU2yKbagJsYG/df8ALt3VbzAqecAEkqnBZD5JlsAhG0baDZUoIncKrsmbVsdwGFsody+imlo1xrwOyAJMMCDQOIE9/imDoj2I/k15CiuEDVU5Y51BM4l1d8LubeHrTjE/UftP9gqEGCfqDyy5d0HACt2VfSnEC/e5lUDKDaf7DYDQ20lUeV3L/wCVOAVbM6cQq4nDRBGXEdBsd2b/AGGwKGSjmmo5VOf5ngFQD+I4ktwGhjS9zG0G2c0Ydwq2dVvKpv7ngw/1HCcaCW6QYXmKENFdre94/pXaU7taHpykqcfy4Du1sf48GS5DU+UuTIy8xRBm6einf5O2lfvY8ruR/Lg20vXedIAn3QT7hzl5VUdsXGOMNG5SquZug6bhTe9iOnKrpnQcAJp8TDOHKoReAnXLQnXqdcPKc51BUpkJJjtQEG02nbLL4h7qndKtW0bykqRtQ9tDv1og3yX0y1fUei5y6qgTY3FMtnkttwEGgbzngKW6Cc5zjTdCjFXNFByu4i6HoqbxVtGKFoKuB4uHVNY1N+m1C5aF8oIXDV9dq+u1G4aEboJ12AnXZKLydld2qqraLlpFVcQKtN4qCcNDrhtJXeZXiFTYV1XVVKqdlAqBU4EMXkWN8Ry0tBE1uj0VFRU3K/pYoS4sjDRy/opLcOTrYhOaQhX9NSqZCSo7XqAAuvMzG0owNK+K1fFavitXxWr4rV8Vq+K1fFavitXxWr4rV8Vq+K1fFavitXxWr4rV8Vq+K1fGahbtQhaEGjm9VRUCoFQKgVAqBUCoFQKgVAqBUCoFQKgVAqBU5oUUbkBNlqZZA0m5amOa4PlaHC4aSCCA8EukAQ6h0gBf0TrhoUb/AC2E0TrgAtf5AuHlSqdQD5ACZMCpD4o9U99DJIGj5ArHKCqcvuahsLWub9MVugfJsbaMqJCazGJqtHdYustwDWB9VIKyXRJLYm0bFQq5J8WRN8WRdSf85TEpkY8ZwGG7r4s/rcV87kfxZEC2Rvg7ry80IdbFMkex11XyDJCIoyFICZXteDbMHhEKSy/3mb4l7v5TCr3ebgxz2vCuKplaVX/nHvdeSb/W8PW8J8B1FwT9S5HSNv8AG77k8vfVfXKPnI64BLm9AF4n6r2eQtyQ1rCJJ2Gpb5COI/UuGEg3FBCHFymaSPruaI3PKkc4SNuHKjniOchU+oZoy5gnc0eLnuuR/FshoGF7uYeIQ6blNlBuU2U3KIIqmygQAGymw9V4hAf4A//aAAgBAQABBQCioqKioqKiptptoqKioqKioqKioqKioqKioqKioqKioqKioqKioqKioqKioqKioqKioqKioqKioqKioqKioqKioqKioqKioqKioqf8H0VFRUVFRUVFRUVFRUVFRUVFRUVFRUVFRUVFRUVFRUVFRUVFRUVFRUVFRUVFRUVFRUVFRUVFRUVFRUVFRUVFRUVFRUVFRUVFRUVFRUVFT/xA6BX+o8JYK69o6chU3tyEO/LyZ7ejra+09OSusNVaevkDXkdFTbTZRUVFTcoqKipspsoqKm7RUVFRUVCpp4YIs57SxtqctrDUOTceu73RHksXqnO4x2F9qWkrrO8tbyBUXRNezzptoqKm5TZTgU2U3qcgK1PrTG4Rmb1NmM1N+3BHfEZzJYafS2vLDMqpU8kccWlNWPvdcin6yioqKioqKioqKioqKioqKioqKmyioqKioqKioqKiIoNba9ZjzJJK+TihzwdFewS53snUZZDnMBdaWltpmXFvRU20VFTZRUVFRUVFRUVNlFRUVNlFRUVNnXcpu0VFRUVFTZRUVN6mzqj2NaewNaHHsJBPH6r13paeaT2NjPm6Z9cZH5mmKKioqblNnVdV1VCqLquqoVRU20KoqLquq6/rT21nqZmCxc00s037cbutD6Dkv3tYxrLq3iuLb1hO+yznMztqEStT6Diz1/e+p8nG3K6ZzmLPSnD6K3t7i5m0l61jt3NY1qoNmUrhfZ46ocyPa5vLa1gy/tLFW5v/AGVqa6M+oc7O77vlfKLUGdjfZexdS2wuL/SmZGQxl1ZP4FCVHHNM/B+tMzfuwWl8RhY+m13b21alixl18vHcwPYrVeu8fhTmM7lMvPsoNtTX9mTPYw9T0XQKLFZOZN0jqYiLQ+rJXR+ttVvNv6mzL3WHqjEQrGYLE41tBukL2XaGbS3ru7+TpX9+Xu/rrvXfwFI97n8DosHpPNZl2J9VYmBWOCw9i3xaBQVoqDZTruE0FldtumLVVu2403o3XbcFa4bUuHzDBy49VrrVIw2PfI6R/AoStIeuGSCOGKNlBwz21RmXYvEYex+DjVcxNmt3eQMMs0Muk/ZRc9j2PHKyriaKCDUWZlzOV4FaL1xo8OQaFTiONGwXZ1TrdoNU4AtuAROuw0BraWylaQ4fvykr2flxaYM0J360WlsI7MZuGKONvDPapXsbV3xYNBaf+0YMADY7+ty7yudlKn1tqb7hYDlR7e0L8XGo+D6lxwbYgcR1fHW2tIcLb6A09NmMu2iGy9nbb2ZNdzTuWdiMvDIySPlWq7h1zqTgA0Wgrb6GlRwj2J6ay13b4mPE47J6hzGIxdpjLGgR7GtNa3nxNL9NypC9eZB17pnlJ7Z4n73wKVWkXsfpkd+Ae088UMOq/ZjpVjsffZS90ppq1wVh+6PZx6e2cmI7Gp3AvT9zW35Se2pI5ItQcCtF60vG3Glx33inOoNQ6/wuIWf1Vl83JiMPkMrdaU0rZYG1oNp7SPaxmr807L57cHf09/6jlJ7ex7L4+qeB0XrHPCyyg77h7ZDN4vHtyvtbEwrM631DlEKrTGisnnHYPA47DWo3Hf19kap+DZCvjuVIXp6B4HKT29sYgy2VOCx7mP0Vrq2ysNQrzLY6zZfey9MWqvvbt3IMhrfVF8nvfI/ssRp3MZZ+nvWNhZujjjYKBU2krV2r7PCWt9eXV/d7taL1hYfG01yk9svjbfJY6/sp7K83x3jZK91zhsxZxy6jzs0TnOe5dFYYfJ5F2M9WZq4OK9babsTFFFGNwq8yFnZRak9pRBtzc3N1NvY+xmvr3H2kNnZ8qNKezNLOuI2mo3/VeGsxjZoYJI9Y4mHF6hYC51njMIGYzJesMaYvZmkY2j2dpUmP2NpFwHsLSC/IOkVN7F0kwSe09MsFz7etg3Iez9TXKu769vZeB6u02TKByvopGMezXOinYqcEEboND691nZYqK/1rpqzts7lpstlV5O3qV3B0R68DSWmLjPX9paQWtvyw9p4YpY9X+ubm1e5pB36Cv6ICq0vo/I52bEYixxdny9wFNRaEwmZOY9e6hx5fDNE/9N0WL07mso7T/q22gdBBBBH+/MKBEAi8xmNvGXOgNJzuPrXSK/Gmkl+NNJL8aaSX400kvxppJfjTSS/Gmkl+NNJL8aaSX400kvxppJfjTSS/Gmkl+NNJL8aaSX400kvxppJfjTSSPrPSVG+t9IBWWkdNWb2xsaKDm1BsoF0XRdF0XRdF0XRdF0XRdF0XRdF0XRCi6czcaB72sZeeydM2tzh9VYPLuzOpMVhV+StI1xuUscnb5XWWBxN2z2RpJzrW7t7qGHP4yfMZbUmJxEwIKuM7jYcxcXMNtDN7O0tFJiczjsrCpHsZHc+y9LQzYnOY3LQDP4z70U57WtvvZGmbabC6lw+Zbmc7jsNbRPbLHks/jsddZjM2OItT7J0isRqHE5do78td29h3FxDpPRWNwh07aabwlpkfZzGPyX+mdOeOCtosR7EyltbXXtWbS2mpYvWr5IMjiP8AdX2jaG7y2gM7PcWub/3S9lzT3Etnp/DWdniNIWWJzZXtC/nhw2J03iMdYYrR1nis7/8Arn7ey8lLZ6b01prGYzFaosLfT+qfbR/6cx3/AMf7DA/1H7Up/pfEad08/FajxlrprU7a15ae13awXVvN6y+NLYZjU+ntQ+02zG9bivazlpXR5xFzqi1yN17I1TDrfD2ek8FjcPi8QP8A7V15/wB061sbjEZO6v7e+9i66ZTV+at8vcWFtf6vx2sV7UFAKUAoh/u5QU9thwwVv4vtvaTWOf7aDjp3HdbD2B/3L7VH/TGGH/s3tFrXvYKO5ae2pps9FjI/aDbZtuzL6s1L7GtriXJtrSoV1bXR9q5rFQZXF+urvIxWeJt7lvs7XFrczamubaC4tcNgMnitf6909eZSwh9niCLS2My2U1IaLW+npM3hbX2RJYQaXvNU5PK528vMX7CPsm7pfwS6w0njtf3OFtLOLLav1Hq/BuzeCx/sC4w1rjYcvqrU/s+C4n03Z+wL22srOyz+qdQDvy6gRjjK8W0oFQKgXi2tAg0BUC8WqgXi2vi1eDFQbKBFrSvELwaqALxaixhQa0KgRYwqgXi2ni1UH+AP/9oACAECAgY/AP1VRqHGFB+79SYA6dZS07SiNO0pGnTpLlU9oKB8RIpqWxacKicPRtlbKyB7Tpqv4/MoeIM3UCU+vJwJ41hMDZi1Iud2vkoDPbUzTmWUgnTjlLDVp61gp95U1IVCWesNJio+AQQrr1ae8n8iHw55+JOdfgOOuShJGlGjO0bIqacGPxfaoj1FRnk42NSHQqr7OgTWBAiA/jnWMEw3jp8SgG06S5VXHUuVV2k+Ko+kpjHpf9Umr+Hk5OAUYDTgTNdprQOc2ESpnJyqdcmriUKauIqXzKQ9a3tO6nLn5f8ASgBxXyonOTUzTnIsLN6OnmUBliExTCecGB3inyMAsdWnqUBlX1prjgmlYa+1oVDNr6k+rJCspsrBOORQmuwihSTifNuHXUnyIaSDQGWwUneKbWb7hYSd7Ngp5qA8mRJyzUzQqMrhuipP5c1k5IZVqTFQiOcsIuEi8ODNZyQRyTmSw0S52hWEb2LrJhdw3qh5G9uazkgMlziuDm+6mChO66e6FV6Pbmt8lgOu/Erd3tPOvIPSnBinaCYXsGu8FV6PbmsVc3JOOUmq5SgyiQvLp51ugadZRJp6KYknpJmTND0reD6eZMLzE7yd7rIJ+dmvCVh8mQgoTWIw7S5XeK3iWUCpKA9RW8W06Kli4lC9EsE349OyVE71j3cKYZsNQEUwTTv4plMbGkonsqRPYUB8u1fbtU/lU1NT/wBLX6vqUHfT4lDT1piS2RxHNsViplfimJgnBTprHZSvyyTps3MUaqB6FGfhbvFRkmGcIrmn4VwacCj4RAQ6yBqnpwJhLOkQOJSA9C+3Yvt2LX3di193Ytfd2LX3di193Ytfd2LX3di193Ytfd2LX3di193Ytfd2LX3di193Ytfd2LX3di193Yvt2L7dikPUof4BhvBFpoYtabZtW6cSYzTOnBRofeQf3rBSnK19X/qcGyK11cW1PSUaddkZJhvKE1vWAc5OUZ6elbqjm8kT/wDUCN7ne8nFPqVDy3v2rk09mlGmk7qwkP8AaiMNNPxMFWByaW9qJBiPpVFPS9iNNXKoVAVNBlUoB1isICiHT0yWnMsYGaYhyeBA0lPrs/Gel7LHw91CqndxKOb8Jkm/HXVT1vpQorOOmrz1Kgie9+1cqlusjVVy0BScJ/igTUeOpNSqiOD5V+Prexf2U9b4lSRpBUuEwLFU0E7vWQQZMbNObYCVCSp8sfYnKiqBYPMqYc79qjm/dW9TV1aVTUQaaKOcqGDje/baKot/BMQjiEVVU0P4qg+dEFAe6H+VOJ0LfpqccC/sr6thaab8lNT9H6lUagaafSnbF9qh+OvsqAwlCmqmp+cyxVjDTSmBTfkpqfo/UsdQw00osMUkB/XV2E9YwUjz05xlchfeyVyIsdo2QURbEP8AoH//2gAIAQMCBj8A/XtC/BQUfENlPKsoKKL58ZPloJimCBz2wUcu6cIVHPj+AuZKCZGnPM1AqT5dzcBztC5EqEVLeykbz50bWp5OSkpXZXyc5sJpzk4qAUsqQmziwnkmCj4EVNRzy+X81w2t4jYRM3Ta6Y5sbJPlmE1iN0+I/CnN0+Izpr7eI00ya66e8c6tfioJlFOL7BNeOa3ybXIWRtjFQvQMb8M7vbFQUlGWQioJ86PY990zKFkSnhkYKeRfN7X2KexlNT8QnHjVFQzpJS8FkpD/AAEzWC1kygmta/BNddQQGc4LhsCkgAN1MRoykiLWQQpGtRDpxKxgoh0+pNpK4GsCFgQbODFOCmqQU1FQKJc8adFBCoKkqirzqDIUk3dObYGsCcIKkarQhm+CZCEEBqt08iITIlApig8kMKZqnWIiyE0xBKfUnZHdTpiE6YJiEKtQtc/pR//aAAgBAQEGPwD/ACqc8Uur2KN9Nu4FqjXo1wOyE1wx5FQKPrlMfY8NZl53lC+gK+P8L80//wBeBv4WwTlIlBI8m0YIlW4gFOsyqw+ozH0YUW19CzsOirNtbzNnXGRBr/6Dyw0szhI1FWdiAo8pwYuGRG9nXIymqRD9Leb6WGE140cLa28RKJTmIHSP0sZ5+P2tcZnxHAFpduI/9Ux3R+RGrT6OFh4rD2D6fiIqvH42XrJ52wtxayrNE4qrqdwPm9nPBjqC6irZ5gEmhI8nfzWmDGT298VqluhFQDyufgr9bG68lpCucdvHURgV5v2mxTk7l+nHa2MzKa1Zakq3gZdGwltcUtOIH92T0HyrVCf1T0seDTDSSNsRBuZiaAAanFw8jbYeIK0USk1A7LOPzqG+k2KitDp37fh3DHD32Ylm1ER+KKav+rhnmffLJ0nZiSzMeU92DKSGGYINCKZ5EYj4bxmTrUW3vSTmdAsnh+VhOBWLbrq7objbmQhPRQfxD9X52OD30QPagB58yR2yPvI5qFW2/RxFPG1Y5VDqfAwr+nvzlj+V8OkP45x9tMM+zUioAp8Nh6q4qW3M2epJ1zJ8uK8p17vlr4q5YTj3E1LUp+CSQliaCnaHd4Mk9b4uJpFXdJaETrkCaDJvqmuIFP8ApLZmt28S9JPqMvflpFo17OSlpEeVqZsfAozw80jGSSQlnkOrEmpbynFOT+wJxHiaEWAo0MBFDMRykH93+tgKoCquSqMgPFiWCQAxSoyODmCrChyxxPg8rDdUsBmKtCdp151Ne/GuPxcl9JEVUJHHRWVQNaeM4JtLyKfb1UesZI8lVwTd2ciIP3gG+P11qPWxl56+93TPTl/zGFht0MkrmiIoJY18Awl5xoLLMM0swegpp8P4x8HVxQLQUyFBQDmGMxppjwYguR0IbxkLGuREw7Jq/TG7FeTk76NNcyrHGgqXYhR6cGPh8TXjjLdnHGPKQWPq4YRSpZxnqiJQT6zbjjdJxC5Y84kZR5hQY3fjZ93xu1evu4DpxC5DLpWVz6K42zXC3cZ1SdA1QcqVAB9OKzW54PfHSeAb7dj8uPosv0PWwN+2S3f/AEVzEd0Tj5LfG+Qel3HLXw5YEccbPITRY0BLHyAE4WS9H4C3OqvRpCPAgJ2/TP0cbbOECQijztRpG8bU9zA9k44bxBBtZGaFmGRrk6Z+Da2LW5FCJo0fL5S175m1hP4niHLED0UroXI9C4Mt/M0lD0I6ns18CjT9rHi09rXlGWKHTmwyBiI26yA5GmlRio0xmaeE4AbXlz82mAYbSZweqVjcg+WmARw24odKoTgAcOdQeViqfrEYANukYOpaRKD1STgi4vLeJKZMgeQ+YiP3cA3lxLdMBUgUjX0VP1sFbK0igr1mVekfnOek3t5nChmgdJPEK7DTyNizqKGDdCc/iMR7nfE4bhnC3/605TzjPsq/BHy/1cEyFnkbNmbMknOpPcc8A2kNIK0Nw5Kx+Q0O76OA/EZWu35Y1Jjj9HSPrY22lnDEOUqi1PjbU40Hs19jw+1rhpUzjDvGjc/ZkoT6wPscSiblt5GHjVdw9Iw9ncQGW3eUyb0ajLUAEBSKcnPjdY3AdgOlE3RkX5ynPA5+bl73a0OBFA1eIXNVgWvVA6zn5umC8jFpWqzMTWpJzNe40AqTlQV/RhL/AI0tVNGiszkOcNJ/dwqRoqIvVVQAAOYAd1lli6V5N9jZpytK+S+r1sWtpXcYYkRm5yF6TfSbP2JYX6siMjeJhTG08lSfAa4WWB2jlQ1V0NGHiIwtnxtqEgCO8Ay8AkHJXTdgMpqDmCDUEc/e15pWCRxgs7HQAZ1xPfSZK52wxn4MYrtFPS2PT3DSuE41fxhl/wDxRsNQMu0IP1PX+LjTupPNiMx9LhPB6ujah5AaBvK3U+SmPd9gjnxKvNI3un2DTLyV9GI+FcQetnIQLeViSYidFJP7s/VwCO9i2SsRNfNsIBp9mlGfz9Ffm4qczz9wri3sqHsa77luaNdfW6uFjRQqRgBVGgFKAd2bg9i5N3Mv/USIeohzCZfCf9X52E7VAt3dES3GWYqOiv0V9k4mb47kjymvs851zx/LrmTdeWagIxNTJEMgc+Veq30e9nYA1W0iVKcm5qs3oK9yuuJSDpzv2MeXwI8z6zN9XupoaeHBtbZw/E5V6C6iMH4bfoGG4regyW0D9ozvmZZjmK11A6xxl5fZnnbqwxs58SiuKnU09pb3612RN9qoyrG2TDzYR0bcrqGVucHl718RlYU/6iRPJGdn7Pca4sFIALoZD4d7Fh6CO6HOnhw9nYsJ+JtkRWqxV5Wp8L4qetjsVZ5ZpWL3Fy9W2pysx9wYhsrZdsUIoPCTmSfnHP2nEJVPTaMxoCdTIdvuHGmdc/8A29plri3DtuktiYGzqaJ1fq0718Qr/wB1P/xG7lwsqagW0QPjVAp9I7m0szhIkFXckBRTnJw9lwRyiGoe9IpUf7Mft4S2tUM08zUNa5jUs7c3K2BBHSSeTpXE+m5hzfJX4PtDi14ah6U7maUcypkPOzfV9txG0plG8cu7wupWn1O9fEUcUb8VMaeBnLD0HuNebEEY69q7xOPBuLj0N3GumGhR/wAXeDIQxkEA/KfQeLrYrdTbLZTVLWOqxqeSo1Y/OwtpZRGSQnpE5Kq/GdsbEAkupB9vckZk8w5k5sae0ZiaBRUk6DFzdKa26kRW/wDDStKeMkt9L2o8YxxX5sPuv3ruJACFuFSUV5SRtPpXuJrpTPD2Fw+2G9A2EnISr/eX2+68uo4AM6Ow3HxLXccMnDYnu3Gjt0E9NWPq4dJbowwNl+Hgqi0+VmWPlbFB6MCXYbaxBo90wpupyIOXAtrKMKNZJDm7Nzs2uB7Q8nhx/KrV6Xl0tJTXNIjkannbQYGWVNfFl7WozxxS4I6DmJFPhXcSPrDvXa8TQdK3YxTEfFk08zfrdyWRGKuh3Iy6hhmCMR2l84i4igpU5LKB8IV+F8df81rurgtd3UUFM+m6qfMTghJ5LlxyQoSPWO0YK2FkkXM8zFyfort93DCS+eJG/dwHsxTxr0vTgu7F3OrMak+U40JHMMBbG1aQE0Mp6Ma+MmmFn4q4vLhcxCKrCp8Nc38u35uAqKFUCgUZAAcwxp7UpuEl/IKQwA1pybn5lxLeXchluJGq7Ek56cvINB7atK05MJKa7rqRpc+UDog/V713FjOPsp1Kk8x1DDwqelia1uQVngco40FRlUeDuKoiF3Y5KoLE+bPAnurOeCMUKysjKBnz8mBE3EbhoFXaE7VgCNc6HpY3MSzHUnM+wAdK5DCrZ2ss1dGjQlRnyk0GK30sdmp+APtHHkXo/WbAeWNrybUNMarUcyABfPhUjVUVclVQAB4gPbNLdTJDGuZeRgo9Jw1vwRDIxyN3INoHzEOfrbcPPcyNLPIdzu+ZPjr7eGzhFZZ3CJTkJOvk1xBawikUCLGniUUHes4HGbVftohtukUVLJor+NK+ritanzZc/t+fwYk4oyBrmV2jDEA7VTLLmzOGjlQPG4IZSAQQfHi6tYMoKh4h8UOA23yYAHL4h7uBJxDiqIMiYbeOSWTxEkKowri3muZP9bcR9pn800XzJgJGJUUZBRFQAeIHHXlXwmI4zvCnjjce4Mf4gPUk/u4/xBfUk/u4qL0v4FjkP7OCVM700IjoPSRitpw+R25pnEY9G7B7ExWaaUjXc2fOXLDBlvLh7iQZh5GLnPx6YHg0x4tPbaV8GmG43OvRUGK0BFKnR5P2PW72lXAZSKEHSmGv7FS3DZDUjM9ixOh5dh+CcZ5EDT21cvLpiThvEGMVszGSCXMhS2qtgzNfRyEiqRowdmroKCtMXF/KNpmboJWu1VyUer7Gp7jTkxljPuCxgMlnCQ1zKRyfEX5RxFb26iOGNQqINABp3uaOVQ8cg2spFQQciDXEl7weMy2xNZLYdaMD4nxk8HWxRsiPg05fDzdwry8/9jpgMAYLFSBLcsKDxJzviKztIgkScuVWambMeVj3wOgrhptn4a8OZuIgBU/LXLdgmKL8bbj97ACWA5Koen+thklUo66qw2keQ0/s+eB+BtJJVJpvI2oPGxouFn4xILh9fwsdezHgYnpN9XCQwoscaCiIoAAHgA75aYzFcFLq1imXmkRW90Y3PYKn8Nnj9CsBjK1kH+9k/S2Py0n3r+/j8tJ96/v4/LSfev7+Py0n3r+/j8tJ96/v4/LSfev7+Py0n3r+/j8tJ96/v4/LSfev7+Py0n3r+/j8tJ96/v4/LSfev7+Py0n3r+/j8tJ96/v4/LSfev7+Py0n3r+/j8tJ96/v4/LSfev7+Py0n3r+/ihs2Pjll/Q2FaDh8IZeqzrvPnapwAqhQNABTv1pjTGmNMaY0xpjTGmNMaY0xpjTGmNMaY0x7/fRmY7VUEsxyAHPnjsO3kmKmhaJCy15gTTd9HGyyug8o1haqP6rUJ8mITxGZoxPu7Oiu9dlK9UH4wx+bceOKSnuYS5sbhZ4W1ZTy8xB6vlx+Fvp2jnChygR2ybTMDAUXbLXQtFIB5Ttwk1vKs0TiqyIQQfKMsTcIjlY30C75Y9rAAUB61KfCGLeK+mMTXRpF0WYZEDUCg62K1rUVrXEHCJJSt7coZIo6NQqNx61KDqNhpp5FjjTNnc0A8dcbBLNNQ07RIzs8laVx29jOJoxk1Mip5mU9JT4/YZ3YIqirMTQADUknBiE0k23IyRISla87ba+MdHH4jh84mjBowzDA+FTRl8ox/Ju1P4/bv7Pa1Kbd3Wpt0wcFmICrmSeYYMQnedlbaxhXcoPNuJVT9HdhjY3O9k68RqjqOfa1DT5XVwlzfSmOKSQRIwVnqxBNKKD8XCyIxZHAZToSCK4tLa6kKTXrbIFCswJqF1AyzbH4u+kMcJYICAz9I8lFGPzjgc5ik97Bbh90s23rKKq4+cjUcebvhetCSrN2aOy6hGcBvRliyktreGQyRK1xIVV37SlWUk9LotXLB4ha2ccFwVKbo12jM1J2johvlY/p5HUMjTSKykVBBeKoI8OKfyqzzyzt4v7uLjh1hVbCeDe8ANVjbaGGufIfWxZwXMKTwNAd0Uih0NIZCKq1RqK4dDwu1UMOskMaN5GUAjyY43w2NjJZWsv2JJBoQ7ryfGUL6vyscU/gfsxY4HaKQrXDPErEZDe0a18lcScHvqrxLhtY3DatGvRB8O3q+q3wscH/wDH/wDnxwjgsblE4hN9rTKvSVEB+TVt30cLbw2cPZBdp3IrEilOkSKtXlri44hZSvFDOtDYrlECdT6Oj8X2IbKFtrXkwR6GhKLmR62yuEtI7WJkVftGZFZnYjNmqK4n4lZStDbzrQ2KUEQJ6x8+a/Fx/uP+R7DJCxja7kWEuuoUgu3nVNuII1t0ad0U3ExVSzMRU9IitK9UY4RxTh6C3iunKXMadFKAgN0RQdJHP0kxa+G8Sv3cmLX+En6ox/Tf8f8A5seB/wCQnuNizkfhtqzvBGXcwREklBUklccH4jwxRbw3MhiniUkJQEBsvCrno/JwO98lvOgkhlUrIjDIg8mHl4PxWew3HdszNKZ03IyN+ti04Vxy4F7ZXrBILg5sCTtBBNG6xXdu3dbHARAdsxkl7InQNuipqDy4A/mtsFOrHb+iGuLi/vLk3vE7nKS4PICQSo8oxBBw24FrevAOynOi0jctoDqgZdMJJecXeS0lfZLJBuBQEV5k5K8uESxbthc0lkuTrJl0SKaLTqrjig/2H7MWP6Y/8kf8WLFr/VXD16cLLHxCNRTehAUE0+T0DXq9BscBvLZg8E9oroeXMT68xHLj+mZD1e3jA8YnT38NHwq4W1uyylZmFQADVhSjajwY4fwfiHERdxzjtJFRQBtO/UhVORXdjPHCJGFVS4NSfon9GBUZ4Apg/wAD/kYocWjjMLdCvljemImXqlFIPgpjgsYoZGnfavPmg904tSNBdpu8RikxbZ/uk/VGP6ZH+3H/ABYsL/Hj9xsWNP8At4v1Bjgsfw2nbavPmg9045e9+/gkayXYZSwfM7K1baDQMeTX5vSx2XF+G3FtcjKigUJ5SO0KEfN6WLHiE1k9lwnh5DxtLUF2BDACoo25gu6nR2/Cx/Txhjd1SZ95VdwA3xa+bAp5j7FlOIXMCwkNOFbYD2Mgzam3lxc2M1NsyUVvisM1b6LZ4n4NxCGRJuHsVhkZSFdCSCFPLsbT5G3HFJnhdYTDRZSrbSdsWjUx/TbxRNIiXFZGUVCjtYzUnkyqcSW06h4ZlKSIc6q2RHpxaW8kcktpbs/YT7Ts7N0dlz01Jr8rdi3uOHgfzDh79rABqw5VHytyqy4FvxLhtxHxFFo8agAFhlXpUYVOuTbcSf1LxW3a2WNTHZQOCGAoVqQc6BS3W67Nv6uM8GCCgvIWE1vXIFlBBWvyg3rYSz41YXK8QSiswCrvIy3UYrmTzdDE/Er0NZcKK7bexcZtTRukA4pqzdHduw/FEspbuJIlXbGpod0QXUKeXH+BXX1v7mJF/DtZ3BbdBHLqHjPhApuWq1+ViPh3HbC4W4th2aSgDpquQNGIr0eVS27FpxK5tHs+DWFHhWUGrtUNkSOluIXdT7Pb0OvieyQ7ZwRJAeQuhqBX5Q6NcRcO49Y3CXVuvZiRQOnsyFd5HwfhKW3YteLXlo1pwrh4rbo9em6kEU3ZtVsywXZ0NnWwqW8bSsJ0JRQWNKMDkMQW/wDJLpjDGke6jAHaoFeqebFpxLidm1hw2wO+GGSoLNUNQbgGbcQpLbVXbgc3J5u9+mM1B8gxSgpjT2NMVoK8+NMZDFaZ40GNMVoK4rQVx1R5saezmAcaY0HmxpjQYzUebGQA9jNQfJjTFKCmNBjT/ID/AP/Z;" vertex="1" parent="o4NIW-_CmcYcTrLImoJY-16">
          <mxGeometry x="-675.6500000000001" y="320" width="201.3" height="100" as="geometry" />
        </mxCell>
        <mxCell id="o4NIW-_CmcYcTrLImoJY-58" value="" style="shape=image;verticalLabelPosition=bottom;labelBackgroundColor=default;verticalAlign=top;aspect=fixed;imageAspect=0;image=data:image/png,iVBORw0KGgoAAAANSUhEUgAAA6wAAAMUCAYAAAC4oqpcAAAACXBIWXMAAAsTAAALEwEAmpwYAAAgAElEQVR4nOzdh39UVf7/8d8fx0wCgq5t11XXsrqmErpKESlWrIsNde1f7GUti7o7MymkEAKE0AMk1FBCes+0z+9x7kxCQEqSmXvOufe+nvs4j/jVXcmcc+Z+z/ue9v8EAAAAAAAL/T/TvwAAAAAAANdCYAUAAAAAWInACgAAAACwEoEVAAAAAGAlAisAAAAAwEoEVgAAAACAlQisAAAAAAArEVgBAAAAAFYisAIAAAAArERgBQAAAABYicAKAAAAALASgRUAAAAAYCUCKwAAAADASgRWAAAAAICVCKwAAAAAACsRWAEAAAAAViKwAgAAAACsRGAFAAAAAFiJwAoAAAAAsBKBFQAAAABgJQIrAAAAAMBKBFYAAAAAgJUIrAAAAAAAKxFYAQAAAABWIrACAAAAAKxEYAUAAAAAWInACgAAAACwEoEVAAAAAGAlAisAAAAAwEoEVgAAAACAlQisAAAAAAArEVgBAAAAAFYisAIAAAAArERgBQAAAABYicAKAAAAALASgRUAAAAAYCUCKwAAAADASgRWAAAAAICVCKwAAAAAACsRWAEAAAAAViKwAgAAAACsRGAFAAAAAFiJwAoAAAAAsBKBFQAAAABgJQIrAAAAAMBKBFYAAAAAgJUIrAAAAAAAKxFYAQAAAABWIrACAAAAAKxEYAUAAAAAWInACgAAAACwEoEVAAAAAGAlAisAAAAAwEoEVgAAAACAlQisAAAAAAArEVgBAAAAAFYisAIAAAAArERgBQAAAABYicAKAAAAALASgRUAAAAAYCUCKwAAAADASgRWAAAAAICVCKwAAAAAACsRWAEAAAAAViKwAgAAAACsRGAFAAAAAFiJwAoAAAAAsBKBFQAAAABgJQIrAAAAAMBKBFYAAAAAgJUIrAAAAAAAKxFYAQAAAABWIrACAAAAAKxEYAUAAAAAWInACgAAAACwEoEVAAAAAGAlAisAAAAAwEoEVgAAAACAlQisAAAAAAArEVgBAAAAAFYisAIAAAAArERgBQAAAABYicAKAAAAALASgRUAAAAAYCUCKwAAAADASgRWAAAAAICVCKwAAAAAACsRWAEAAAAAViKwAgAAAACsRGAFAAAAAFiJwAoAAAAAsBKBFQAAAABgJQIrAAAAAMBKBFYAAAAAgJUIrAAAAAAAKxFYAQAAAABWIrACAAAAAKxEYAUAAAAAWInACgAAAACwEoEVAAAAAGAlAisAAAAAwEoEVgAAAACAlQisAAAAAAArEVgBAAAAAFYisAIAAAAArERgBQAAAABYicAKAAAAALASgRUAAAAAYCUCKwAAAADASgRWAAAAAICVCKwAAAAAACsRWAEAAAAAViKwAgAAAACsRGAFAAAAAFiJwAoAAAAAsBKBFQAAAABgJQIrAAAAAMBKBFYAAAAAgJUIrAAAAAAAKxFYAQAAAABWIrACAAAAAKxEYAUAAAAAWInACgAAAACwEoEVAAAAAGAlAisAAAAAwEoEVgAAAACAlQisAAAAAAArEVgBAAAAAFYisAIAAAAArERgBQAAAABYicAKAAAAALASgRUAAAAAYCUCKwAAAADASgRWAAAAAICVCKwAAAAAACsRWAEAAAAAViKwAgAAAACsRGAFAAAAAFiJwAoAAAAAsBKBFQAAAABgJQIrAAAAAMBKBFYAAAAAgJUIrAAAx2C8T9r6D0ldx6/yzdEt8tqeFbJp92JZUvUnWVJNoQ7y3wdW1NwtL+6qkPf3b5RtJ7ZKy6V6OT3QJolUnG8lAMBBYAWAgBpPjsnB7p3y+ZHNsrbhISmKzHFKcTR0VQlf4+9RqAN3+sBEH3x59xL5z4n/k/NDpySVTpr+ugAADCGwAkCAqJmrIz3N8nbLWllUdWsmJESyJRtOSwiohFEDLyRUvyu55t8Ly5q6B+TbY+9K58g5SafTkk6nTH+VAACaEFgBIABGEkPyS/unsrL2XimNFTJrygyxx0J5JriWV86T9TsedZYOq+CaIrgCgO8RWAHAp5LphCTTSfm/I6/J4qrbpDRWQFA1Hrwo+aiDslihPFF7j7PfWiG4AoB/EVgBwGfSknZ+fnHkn85samm0cMqSXwp14J8+UBotkBXb75aWSw2EVgDwKQIrAPiIOpxm14UqKY3NdQbzalDPnlTzwYrifh2og8MGxntMfwUBAHlGYAUAn+gaPS/rGx+9xkFKFOrAz30ge4p1tr//cPxfXIsDAD5CYAUAj1P7VCOnv/vDab/mgwSFOtAcXLP9Xx0udn7otOmvJgAgDwisAOBR6pTUkcSg/LP5CSmZXP5LSCQk0geKsvtbI6e/N/01BQDkiMAKAB51fviUrKq7nz2qBDRC+vWWCUfD8t7+jc6J2eoFDwDAewisAOBBeztrnVmkzMCc5b+EVkLr9fqAOnTs+aZy6Rvv5iRhAPAgAisAeIiaJYqc/jY7qzqHoEZQow9Msw+sqrtPukbOT177BADwBgIrAHiIOlypdMpyRwIbgY0+ML0+oPZ3L6q+VbpGL7A8GAA8hMAKAB5RdfZnKYllDlcirBJUCaoz7wMTh5L1jXWZ/joDAKaJwAoAHtDauzd7EjB7VglqhPVcA+uymjtlLDli+msNAJgGAisAWO7c0CkpjRU6d0xm9q4SWKgD+kAufUC9/Nm0axH7WQHAAwisAGCxkcSQPFH7F4IqAY2Qns8+4Lz8KZDvjr1v+isOALgJAisAWCqVTsnm5icnlzFSqAP6QH5Dq/p5auCY6a86AOAGCKwAYKF0OiXNnXUEFEIqfcDNPhAJyeKq20x/3QEAN0BgBQBLLapaQFghsNIHNPSBz1s3c9UNAFiKwAoAFs6uftX6FvtWCauEVdf7QOYQs4WVt0jncAeHMAGAhQisAGCRdDotY4lRggphlT6guQ+83vwEgRUALERgBQDLbNq9SEpiXF9DaCW06usDYWdFw/5Ljc5hZwAAexBYAcASaUlLW99B57oNwhphjT6gsw+EnZdETzU8KMl00vSjAAAwBYEVACyRTCdkTd3f2LtKWCWsGuoDpbECiZ3+3vSjAAAwBYEVACxR27HNGTAT2Ahs9AH9fUAtCVYzrUur75CheL/pxwEAIIvACgAWGE0My+Pb/+wMmksIbAQ2+oDRPvBl65umHwkAgCwCKwBY4LPDr0pxhKBGUKMP2NIHOkfOmX4sAAAIrABgXsfgCQ5asiCgUKiDiaXBapXDsztLTD8aAAAEVgAwK51OyUu7FjO7SlgiMFvYB070H+YRCQCGsSQYAAw62rtPiq449MX8IJ1CHQS9DzjfxUhIKipv4ZobADCMwAoAhiRScVmRPWhJnU5qepBOoQ7oA5f7QFF2T/kPxz+QRCrBcxIADCGwAoABqXRSYqd/YFaVkEhI9EAfiKfGeU4CgCEEVgAwdI1NaaxQimNqQMzsqulAQqEOrr88uEDealkjqXSKZyUAGEBgBQDN0pKWDw++wJ2rhCSCsif6QFjKYoVyZrDN+e4CAPQisAKARmrA2zt2iaXAxkMIhTqYWR94ZmcRz0oAMIDACgCabWx8jMBKYCQweqkPREJSGiuQHecjPC8BQDMCKwBo1NJZL6XRAu5dNR1AKNTBLELrE9vvkfHkGM9MANCIwAoAmqTTaVlafTthlbBIWPRoHyiJhuTfxz/kmQkAGhFYAUCTL1o3sxTYgtBBoQ5m3QciISmJhaV3rIvnJgBoQmAFAA0SqYSUV85jdpWwRGD2+AxrcWSOfHjweZ6bAKAJgRUANHi7ZS1h1YLAQaEO8tUHjva28OwEAA0IrADg8jU2x/sOcNASQYmw7Kc+EAnJmvoHJJ4c5/kJAC4jsAKAi+KpuDy7s5jZVdMBg0IduBBaGy9EJZVO8QwFABcRWAHAJWlJSd253zIHLUUIDIRG+oDf+sDiqttkNDHCMxQAXERgBQCXDCcGZVnNnVKsAqsFg2sKdUAfyG8fUC+jvjzyBrOsAOAiAisAuLR39Zf2z6Q0VkBIICjSB3zaB4qic5yfg/E+555lAED+EVgBwAX94z1SFps7OQtjemBNoQ7oA+70AfX9fr6pjOcoALiEwAoALnh1z3IpcWZXCasEJcJyEO5nPTPYxiwrALiAwAoAeXZx+KwUR+Zw0JIFQYJCHejpA2FZXnMXz1IAcAGBFQDyjH2rhCSCcvCWBZdECyR65geepwCQZwRWAMij7We3ZZcBsxTYdIigUAda+0AkJEurb5ex5CjPVADIIwIrAORJPDUuZZWZg5Yo1AF9IJh94P39z/BMBYA8IrACQB6oKy0+PPi8M8vCqcBBKZkrTVSbO+Wq2Tbzvx9Fex043/8COTvYxnMVAPKEwAoAebhz9cLw6clrbCj+r4OJlxIlkbBUVC2Q1XX3y3M7y+TZnaWyYcc/ZFHVrZPLwnmBEbzQ+uKuhZJKp3i2AkAeEFgBIEdqYLppV4VztYXxwTLF3YAay/x8qv4h2X2xRrpGzksiFXdeWqhZdlVUf0imktI9elEOde+W55rKrvx30Ea+7aeX2zgsLZfqebYCQB4QWAEgByqoHOjeKaWxQpYD+76E5cVdFXJ2sF2SqcS0+0gynZDOkQ55Y+/K7FJhDuQKQl9ZVXefjHMAEwDkjMAKADlIpBKytuEhln36uKhZVXWYlpoxS6aTzizqbKj/7bHe/bK4+jZmWYPQb6Jh+fXk55JKJ3nGAkAOCKwAMEsquPznxFbCqs9Dx/LtdznLe/OxJ1H9O9Rp0qvr7qPf+L3EMv1nMN7PMxYAckBgBYBZ6hvvlvLKeVIcyZ4WS/HXXsRISJbX3JX3ezXVMnJlXcPfnT+HQ5n8W0qjYfn44Ka89h8ACBoCKwDMMnR8cuhlwoZvS1jKYoXSN9bt2ux8Ih2XpTV3TIZj85+Z4lYddI1ecKUfAUAQEFgBYBY6Bk8QNPwccCIhabpQ6fpLj5MDreY/K8W1OsicCB2WdQ2PuNqXAMDPCKwAMIt9iM/uLGGg79ugE5a1DQ9r+V6omdY3WlZNCTcUP9aBmkU/0NWkpU8BgN8QWAFghg737DE+AKa4VAeRTLhQhyzpMpIYmvyzaVef1kG2bQEAM0dgBYAZWlg53/wAmOLaFTZP1N6j/TuxadciAqvP+3RRZI580bp51tciAUBQEVgBYJpSknQGnKYHvhT36qAkViA7z8e0h4q23oO0q+/7dlhKY3NlODGotW8BgNcRWAFgBorUwJOlm74NFGo5cM9Y5+TVM7oMxwct+PwU95ebh+Tl3Uu09i0A8DoCKwBM0xvNq7jGxveBokDGU2NGDvJaVH2r+TqguF4H6qXIkZ492l+KAIBXEVgB4CbS6ZQc69svpdFCTnL1eaBZU/+AJNNJI9+JN/auNP75Ke6HVfViZP2ORyWRihvpZwDgNQRWALiJVDopaxseYjAfgDCxofExZ7bThH8deMZ4HVD09bXac79yABMATAOBFQBuQB2+U3XmRymNFTCY93mgMR1Yv2p9myXnQSmRkDy+/c8yFO830tcAwEsIrABwA6PJYVlec1c2SITtGOxSfBlYvz76DoE1YP3t38c/MNLXAMBLCKwAcAPfHnuXEBGgAEFgNd8OQSplsUK5OHyWZzAA3ACBFQCuo3PknJRXzpsMM6YHtxR364DASh8z0ede3b2cE4MB4AYIrABwHW/uXSNF0TksBQ5IkCGwTq2PzGm2V9SR83/z4ibvfS8SklMDR3kOA8B1EFgB4Bra+w9LUWSOFUHKD0Xdb1qcrU9Vr5N1G5mT+WcxG37HoC8JDktJLCylTlupdgpJWWWhcz+sKpfb7PL1LH8ItZSZ14Gq59hcY/0OAGxHYAWAqyRSCXmy9p7LA3MG4bMPgbGwLKq6Vd7au0Z2nI9I9+jFyXruG+uWls56+fjQJlm+/S4piRVMBiET9R7owKrqPFYgi6tvk08OvXzdGb/x5JhETn8nzzQWOyHrcnsRVmfd7yKZNt/e8R+WBgPANRBYAWCKtKSl8UKEkJpr+ImGZU39g9J4IercY5up29Qf7p1Mp1POP1d/v73/kGzavcjYstOgBVYnZEZCzozqE7V/kdqObU7/V59f/byelGTa8/zQKdncvFJKY4V8X/LwwkD9jKfGNfY4APAGAisATDGaGHZmjiYCjIng5OWilpFWVM6Xn9s+lkQqPqPwNxFomztrL18lpHHJadACqyrqfuEt+9Zl2yoTRKdrItSqmfPFVbexvzWXtsj28/f2b3C+BwCAywisAJClgopanmo69HmtqJBVkv25rPoOOd53IKc+pUJr79glWbfjkSv+DB2fIwiBtWTKcu2f2z/NyzLUSyPnZMOOf0zeV8wS4dn3wc7hcywNBoApCKwAMCUkmQ5/XitTA9aLuypkMN6Xt/40nBiQtQ0Paf0sfg+sU//93x97L6+/fzKVdPa/Th7GlN2bSZlJ+xTI803leW0XAPA6AisAZD1Vr8IRg+zpD64nljLOkc9bN7vSj3pGO2VZzR3OUmO32yYIgdUpkZC8vufxP+wnzhe1bznzZ+ld0u2XorYkNHfWudI2AOBFBFYAgacG7kd6mqVMXedBYJ3+4Dp7Fc3hnt2uhR+1r7L67M8sCc5jWK2omi8jiSFXv/cdQyekNFrozLKyPHim7RSW1XX3SzKdcLWNAMArCKwAICKPb/+z8ZkV75Tw5EzgmcE21/uPmvFU16i4/bkCMcMaCclXrW9p+TxqX6v6XmUOz2Llwoz6Yiws/z7+oWsvggDASwisAALv1xOfZ67mYPniNAJP2DlZdlHlAme5ro4BtZplbbpQ6Xr7BCGwlsfmOScC66D6xlhyxDk8q4yrb2beVpVznX3cABB0BFYAgaaWRi6qutX12Tuvl8mTZZ3lin+TwXi/9rZaXH2rq6E1CIH12cZi7Z9L1efrzY9PfjaWCE+zP8bC8v7+Z7S3FwDYhsAKINDe3bfeeBj0TImEZP2OR13f/3g9LzZVEFhzCuQFsr3jP2LKm3tXOyFs4uWA8f7siRKWE/1HjLUZANiAwAogsE4PHrNgQOqFkjnt9cWmcmOzj+quUHVnKDOss29HtSy3e7RTTPr4IPccz6jdIiHnfttkigOYAAQXgRVAIKng9dLuxc6AkNmemw+aNzY+5oRGk4717nM1mPt9SbD6dw+O5++e3NlQfehfB56dPGGa79702m73xRoOYAIQWARWAIGjDoPZcT5iwcylF0pY1u34u/GwqnQMniSw5ni/Zzw1broZJS0p+ejgi1Pu8aXc6Pun6mhpze0ynhoz3XQAYASBFUDgDCcGZYVz3UZ2QMiA+TqnARfK+h2PGJtxvFrH4AkCa44zrEMGDsu6lmQ6Ke/u28B3bwYvjr479p5TbwAQNARWAIGSTCWdgR9LEW88OFZhdVXdfTKaHBZbZsXrz/3OHtYcAqtq0/7xHrGFCl/vtKx1DoPintYbfx+Lo3Oc66QAIIgIrAACRQ3YnQEys6o3nImrqJpv5OqaGy0jfUOdMutiu/l/D6vZU4KvJZ1OyfNNpU4Y4zt5kxcO0UJ5dc8K000GANoRWAEEyrv7NzC7ep2wNnWv47mhk9Yd8rKy9j5mWHMM5Ot3/F1so/Zmrqn7G7OsN2vD7H7ftv6D1izTBwAdCKwAAuP88GnC6g3CzMQs3JHuZrGNmu0tc3kWzu8zrKpUVC6w8oqUrtHzsqT6TxzENI02XFg5n8AKIFAIrAACQ+3JZNnhtYLa5cBWffYnsY1aNvrJoZf/MBNMYJ3dibNfHNkstlGz+cf7DkpZ5Ty+ozd5qaKWT9d2/Gq6yQBAGwIrgEDYc3G7lMQ4Efh6Sw3VzOrWI6+LbdR1Oj2jnVJROd/12ccgzLCqsqj6VhkY7xUb27rh3H8zdcB1N9dvQ3XNTfXtMpYcNd1kAKAFgRWA76kAUu7M3BBYrzW7qmZsXmhaKLa23cu7l2gJckEJrCrwvN78hBV3615N/U6fHHqJ7+o02vGzw6+Ybi4A0ILACsD3Pjz4wmQgcT0MeK1E1J64W2Q0Ycf1NVf75ug72uoiCIF18pTlSMi53kktt7bR801l5r8bNpdISMpjc+XC8GnTTQUAriOwAvC17tGLzv2TxgeYlhYVkM4Otlt3IrDy+6kvM9edaFoeGoTAmikTS27D8kv7Z1bOtI4nR41/N6wvkZC8tudx000FAK4jsALwLRXCXtxVwX64Gwx4t53Yat2JoypAfXDguSknxuqZGQ9OYJ0SWiNzZMu+pyWZTopt1IsUlvHfvB0Pde8y3VQA4CoCKwBfUqGjubM2OyjXF3q8UtQhS8/tLLVuZlVdubK46k9XBittdRKkwDo1tIZkUdV8GUkMiW0vLn5u/5Sl/DfssyF5ovYeK2fJASBfCKwAfEnNGK2quz872CWsXjHQjYSkNFpgXUBRy7enhkf9IT5ogfVy6Jn46xP9R8QmyXRCNuz4B6H1Bm2n+kxNxy/WrZQAgHwhsALwpcozPzLIvUYgm/jrfV07xCax0/+WktgfAxSBVXM9RELyU9snkrJoiXDnSIeUxeZKEVfdXLPNiqIhKa+8RfrGukw3FQC4gsAKwHcG432ytPqO7Mwqs6tXD3Df3bfemtNh1azQV0ffsmImPKgzrFe/0FA/Pzn0ssRTcbGBag91OBT3s9647VSb2bgXGQByRWAF4CtqcPtF62ZmV68zsF1S/ScZiPeKDRKpuGzZt87ZT2syqBJYr10Xb+1dY82ycTXj+0xjkRRH5xjvJ/aWsDMbzX5WAH5DYAXgK+eHT0lJjFnVaweyAtl5ISY2GE2OyCu7l2fCasTcMmAC643qo0Ce31luxR296nCwjqETUl45N9tf+I5fHVbVFVDrdzxquqkAIO8IrAB8Iy0p2bSrgsHsdcLYS7uWWHEwy1hyRF5oKp9c4mlL+Aj6kuCr66I4klmmrU6TtmWm9btj73FN1Q3aTR2mdqR7j+lmAoC8IrAC8I1D3butWV5qW1lUtUC6Rs+bbiIZT47JhsZ/SPHkAUt2BLSJ34XAeo3QGgnJ0w0POyf2mqZ+hydr7zHeV2wsE9+lhZW3mG4mAMgrAisAX1B73JZU35YduJkfPFpTIiEpixXI98fet6KN1jU8IiUx9VIhbFVYnRjwE1ivH1rX1j8kNjjY3cSLqev248x36qe2j003EwDkDYEVgC/8dvJL44HHxqKuAllWc5cV15Rs2rVISmOFxk8DJrDOLrSqn0/W3Ss2WF1/v/H+YnMpj82zYkYcAPKBwArA89SeQ9MDRFuLWiJdf+5344H1/QMbnUF0Zl+krXXFDOsN68jZb1wgb+xdbfQkWnUAU/foRSmKzGE/6w3a6o29K421EQDkE4EVgKepIPbSrsUMXK8zcF1Z91fTTSQ/tX/iiSWcBNbp19V3x98z3a3k3X0bpDRaaEXfsbGopfenB46bbiYAyBmBFYBnqVkeddVFZk+k+QGijeV47wFJGzwZuOVSw+RpwNYP8JlhnV5dOW0Zlvpz/xXTp02b7jO2F3V3renVFQCQKwIrAE9T9w5mDu+xd6mp7jIREJ+qf9DoNTZnB9ud04knAo4X6o1Dl6ZfXxWVC+TM4HGjL6y+aH3DusO7rCnqexcJSezMD1ZcZwUAs0VgBeBJarDacO6/zr2DxgeGlpZzQyeNtY+6t3N13f1W3bN6s0JgnXmdraq7z+gdrerPLq+cJ0XROcb7j30l8717YvtfZCg+YKyNACBXBFYAnqSWAz65/a+eWGpqojzV8KCxg3HUn/vOvnWeCaoThcA6u3p7u2Wtwb6Wki9b3+Qqqxv26wL59ti7RrcGAEAuCKwAPEedEvrD8Q+kJOatQKSzmFqqqfbL1XZsm5zd8VJoJbDOvu5qO341tuy0e/RC5lAvXl5ds22KoiFZWHmLdI1eMNI+AJArAisAz1EDL7UM0EthSGdZVXe/sdmUnrFOKauc68m2IbDOsu4iISmNFUjfWJeRPqeC8qeHXjHef2wuqn227FtnpH0AIFcEVgCe81bLak8GIrdLSfZny6V6Y7OrG3b8w7P7igmsudRdgaypf0CShk6kvTh81nj/sf3ZoPr36YFjRtoHAHJBYAXgKW19Bz1x4qz+AWmmTpbX3C3x1LiRZdr1536Xkoh324bAmnsdRk9/L8l0Qkx4bc+K7CFf5vuSlSUWkqU1d3BiMADPIbAC8Aw1g7em7m+T4cL4ANCyourkf6e+ccKjbol03Bf1x7U2udejOhDNhCM9zexjnUYfb+6sNdI+ADBbBFYAntF4PsKA9LqD0bAsqrpV+sd7jLTNpl2LPH8IFoE1H3VYIC80lRvpg+qk4jV1D/AyaxrtBABeQmAF4AnjyVHnpEsv3eupO2x9dPAFI7Orbf2HpMgHJ7QSWPNTj2oP8/6unWLCf9q3ev7Fidt9XD1DPzr4opH2AYDZILACsJ46BfSL1s3sTbveQDQb4tv6DhkJrBWVC3wx801gzV9dLt9+l5G9koPx/kx/tKA/2T4T3jXCNTcAvIHACsBqKoANxfuND/DsLmFZ2/CQJFJxvW0jaak8828fDeLZw5rPa1R+P/mVGDt8iX3uN3xeqIOpnml8jAOYAHgCgRWA1VQoer6pnGV+NwxaBfJL+6dOXWltm3RallTf7gQ9PyzTJrDmtz5V39D9EkVRy5FLY4WcJn6zu3OjBdJyqU5SYubOZgCYLgIrAKtPBW7taZGiyBxfLDl1q6i9vZdGzmkNrOrP+qXtUyn1QVCdKATW/Nfp98ffFxPPjeU1d/HMmEb7rKy7V3v7AMBMEVgBWG1ZzZ3Gg4zVJRKSdQ0Pa59dVVQoKDL9+fNYCKz575sVVQuMLDt9u+UpKYkVGO9TXlid8d9TX2tvHwCYCQIrAGv999Q3ztI+Pyw3dWewmQlZv536UmsoUOFY3feqlhT6qz7Zw5r3eo2E5LeTX2jrm07/TKfkUNduJ4yZ7lNeODF4SdWfpG+8W2sbAcBMEFgBWBG98AUAACAASURBVGkkOSSLq25jWd9NwkBZrFAGx/u0tk08NS5P1T/gu0BAYM1/faqyrPpOGUuMiG5llXON9ymvlI8PvWjkhHEAmA4CKwArfXDweSmOmR/IWV0iIVlVd5/WdlGD2ubOOucUWOOfP8+FwOpOH1XLxuvO/ap9j/VbLWt891LFvWuxCuTsYLu29gGAmSCwArDO2cE2Z+aQg5ZuNtAMy+etm50lkLok0wl5edcS35wMPLUQWN2o00y9rmv4u9YTg9XBS3subs8+Q/zVT/Nfws4p7C/tWsI1NwCsRGAFYJ0XmhZKcXQOA82bzlzNce6o1en80GnfBdWJQmB1NxS19R0S3fx0KJiOcrB7l/Y2AoCbIbACsErLpXrjgzYvFd2+ObrFl8uBVSGwulu3Hxx4TutqAOWp+gd9+4LFjbKo+lYZS+rfbwwAN0JgBWANNVBavv2uyQGu6cGb1SUSkvU7HtXaPqOJYefOV7+2DYHV3foti82V4fiAtv6aTCXl320fsrVghu30Y9vHLA0GYBUCKwArpCUlv5380nho8UyJhKSls0FrGx3pac4e0GLB53ehEFjd77O7LlZrDUNq3+zEn226f9leMi+i1H7WAhlPjmlrIwC4GQIrACsMxvs40XOGA0x1AJJOr+953NcnNxNY3a7fAnl1z3KtpwUrambXdN/yTgk79yu/tJsDmADYg8AKwLhkOinv7d/IIUszGfzHwtqXa/v9ABsCq8t17MzOh2U8Nab1GiZ19RMzrDNvr4vDZ1kaDMAKBFYARqkB5fmhU8bDitfKa3tWaG2nM4PHjX9mtwuBVc/s3aGe3c73Xgc1m/tz+6eT7Wu6j3lpafDq+vu1z4YDwLUQWAEYt7bhIefkWb/ujcx3KY3Old0Xa7S20Zstq30/S0Vg1VHPYXlxV4XWvtsz2pltX/N9zDslLCWRsNR2bNP2cgEArofACsColksNzHzMYkDZM3ZRazupmTECq7u+PvpOYL4LOmfuhhODxj+vJ0skJMtq7pSx5Ki2tgKAayGwAjAmlU5KUWSO+YGZp0rYCTXq9FNdVLgIwgwVM6z6+vDAeK/G/puS0lih71+4uFFKY2H5+ujb2toKAK6FwArAmM+PbOagpVkM9lfU3KXtMBT158TO/GB84KyjEFg11XMsLD+2fSQ6vbp7ufH+5bXizPZHQlJRuUB6xi5pbS8AmIrACsCI0cSQlFVy3cTMB5EFsmXf01pnV9Ue46AM0Dc0PmbsZNQgLQleVn2H1rqNnP6WGdZZtVXmAKZ3ND5zAOBqBFYARqiDV0wPmr1YymKFzoynzoNQyioLjX9uHYXAqquuw1Iemyc6He1tMd6/vFzUdoADXY1a2wwAJhBYAWjX2rtXithPNrvBYyQkh3v2aGurdDolxdFg7DMmsOqt76H4gLZ+fGH4DDOsubRXJCQra+/lXlYARhBYAWg/aGldwyMMHmcZqFTpHr2gqa1SsrezPjBtRWDVV9fqsLW6c7+KLiOJId8fGqajbO/4j7Y2A4AJBFYAWvdDVp75kYFjjqFqOD6opb2S6aR8cuhlZ9+s6YGyjkJg1VjfkZC8tmeF6HxRtqjyVuN9zLsl7LxkWFR1qwwn9M2MA4BCYAWgjVoC+Pj2uydnCs0PwjxWYiFZWnOHxFNjWvcaB6WtCKwa6zsSkqcbHtb6suyFpvLA9GU3vyNbj7zuvAAAAF0IrAC0LS/9pf0zBow5DhafaSx2Zj51DfKXVd8ZmKuHCKwa6zuSefmi00eHXgzMagE3vyPllXOdJdYAoAuBFYAWaoCzQs2uxoIRftwopdECebtljdYeW1G1wPjn1lUIrJr7c6xQ28sXZduJrVISI7Dm1G6RkJREwvJD2wccwARAGwIrANepK1j2dG43Hkj8EFi3HvmnloGiml29NHJeymLBuSuXwKq5vmMFcqL/iLYrmqrP/swLs7y0Xdh5kQUAuhBYAWi5GuX15iecN/PsIcttsPhT+yda9o+pP+Ngd1Og2ovAqr/Oq8/+5DwfdGjurCWw5vG7cqx3H7OsALQgsAJw3VCiP1DBx70Slvpzv2uZkVKzuCpMlEaZYdXl66PvBOp7ovsAn0PduwKzH9v1tosVyD+bn9DSbgBAYAXgKhWudl2sZmYjLwPFsDSej2pbQvlT28cEVo2CFVgzn/ODA887y891OD98mkOX8tR+6oqb4ugcbc8iAMFGYAXgujdbVnPYST5mNaIF0t53SFuP/ar1LSmNFloQbvQUlgTrr/M3967W1p8vjZyTUg5dyt/hS9ECOTVwlNAKwHUEVgCuLy01HUT8FKjUITU6qJmTd/evD9CMH4FVe51HQvLszhJtgWcw3s+Lszyf8vxl6xta2g5AsBFYAbhqIN6bfRsfnODjWqCKFcj5odNaBvjqz3h1z7JALeVmhlV/nW9o/IfWwJqZYQ1On3a1REKyuOpWLW0HINgIrABcdbR3H/vG8jRAVINttQ9PS2CVtDyzs1iKYxYMjDUVAqv+wPNE7T3a9rCOJoelomq+8X7mp6KuvUqk4lraD0BwEVgBuOrDAy8YH1T5pWgPrI0qsAZnNorAaiKw/lVfYE0MOzOCpvuZn0pJrFCGE4Na2g9AcBFYAbhqUdVtLMHL0+CQwOry4Dsalg2Njxm7WzJYpwSbCqy32fHZfVLUwUv7LzVqaT8AwUVgBeCaZDppfEDlp0JgdXvwTWDV2qcJrL4oXx99m/8vCsBVBFYArhlPjhkfTPmpEFg1BNYd/zA2w/rOvqeN9zGthcDqizb8Z/OTRr4vAIKDwArA1SV4xgdUPioEVvfreHXd/ZJIJbQ/FdS+5Nf2LDfex3wfWKtZEpzvlzzrdzyipf0ABBeBFYBrRhJD5gfFPiq6A+vGxiLjn1l3KYrMkXhq3PX6/WN9pzJhKmK+DnQWnYFVHQ6kroYy/Zn9VtbUP6Cl/QAEF4EVgGuGEwMcuJTn2Yzzw6e09FgVit/cuzpYhwBFw87n7Rzu0BaiJgzF+6Uo+zuYrwdNJRKSjTse03oPayawBqiONZTHt/9F+/cFQLAQWAG4Ogg3PZjy24mc7X2HtPRYFSK27FsfsMCaqePqsz9rC1ETDvfsMf7ZtZdISJ5tLNUXWMcnAqsFn91HZcX2uwmsAFxFYAXgGgJr/sPUsb592nrsd8fek9JoofEBse7yZO09ottzO0sDtxxYlTf3rtFWx2o5fdBewOgoBFYAbiOwAnANgTXfg8Ow7Dj/Py0zUuqk3F9Pfi6l0eDNSKlQc2H4jOgS5O/Jhwef13Yqc8dgu/PSx/Rn9lshsAJwG4EVgGuCPBB3q/x+8mstA3z1Z9R1/Ooc9GT6M5sIrMu33yW6BHV2VZVvj73rHDilw6Hu3exfdaENCawA3EZgBeDuoUsBHYi7UUpiYfn++PuSSidd77XpdEpae5oDvYRy24mtroYp1Y6tvXuNf06Tpe7cb9r2P6o/S32HTH9mv5Unau9hDysAVxFYAbiGa23yOzAsjRXK1sOvSVJLYE1L79glKa+cZ3xAbKZkgs3ZoXZXQqsKqyOJYSlTS1QD+lJHHYB0evCYtkOXfj/1FUuCXWhHrrUB4DYCKwDXjCaGjQ+K/VTU8tzXmx/X1mPVzFdF5Xzjn9tEcWaWIyFZXHWbDMb7nBnnvNVrOi2JdFxW1NztzPiVWPB5tZdISMpihaKTOkSMPax5/p7EwrJuxyNa2xFA8BBYAbgmnhq/PPg3PUD2QVH1+HTDw5JIxbX0WhWsltfcJcUx85/dTMn0WxVaTw0czduyx96xLllefVfgr1hZVnOH6LSlZR17WPP9HYmE5OU9S7W2I4DgIbACcI1a9qgGNUXGg4d/ilqiO5Yc1dZrX9m9LOAvHDIzraoOYmd+yGk5tlpavPtijVRULQjwS4BsiYRkXYO+mTl1iJiaCWQPqxv76v+lrR0BBBOBFYCrVtb+lVmNvA4QC2Qw3q+l16pw9u3Rd6U4gCcFXytgqZ8bG4tk36UGSaQSMwpLx3r3yaZdi674dwW9vLt/veiSTCWkLDbX+Gf2W1FLrPd3NWprRwDBRGAF4Kqvj73NrEZeB4hhOTPYpqXXqn2bajCamWE0Pzi2aVZpbf1D8lXrW3Kyv9XZ4zr1qiG1dFhd6aTa6af2j+WZxmLnpQ0rDS7XYVFkjtSf+010UW0U7JUCbn0XCpzT4AHATQRWAK46NXCMgWKeB4lqWamuk1VV+CqOzGFW8A/tEHaW9ZZGC2RZ9R2yruHvsqHxsUzZ8agsr77T+WeT/10LwoVtRefS9rODbcY/rx9LeWyeM3sNAG4isAJw1VA8cxcrsxv5GSCqEPRL+6dae62z59KCwbHNRfXvqcX072N7KY/N1dqHWy7VG//MviuRkCyqXKC1HQEEE4EVgPsHL6k9e+zby9NAMewchKRrhlW13ws7ywlhpsOBn0ok5Jw+rZNavs0zKP/LgT87/KrWdgQQTARWAK57f/8z3H+Yx8G++qmCpA4qGE/MTjFzaEHY88ke4N9PfSU6qROJTX9uP5XMsyAsZwbatb08AxBcBFYAGgJPA2Enb4PFsPb9f4rpATLFR3UQCclIYkhb300490Fnricy/tl9VIqic7S1IYBgI7ACcN1IYlDKYoUMGPM4u3Fu6KTWnlsWm0f7WRAS/FJ0UicEq1OJTX9mv11n8+qe5VrbEUBwEVgBaDlp9q2Wp6acmkrJdbD4+8kvtfbcr46+RbvRb3PuA6WxsGzZt05r323rO5j93nAYVn76cOZgsfb+Q5KWy9c5AYBbCKwAtNh3aQeBJ2+zGyFZWXuv1p57aeQc7UdgzbnfqpdWx3sP6LuWKZ2W9/ZvpO/mte+GZXH1bVraDwAUAisALcZTY7Kq7j5mOfI4cNQpkYrTdgTW3F+2xMJOX9JpWc2dLGfPcxv++/iHkkozuwpADwIrAG3LgqOnv8+cFszhJ7kPHCMhGU2OaO29X7W+PXnoE4U6mGkfKI0Val8OrKiZXZ45+euvCytvkdHksPZ2BBBcBFYA2ownx5ylrGr/E/vJcg+sP7d/qrX3nho4NnmdBYGVwDqjWbnsd761p9l5eaVrOXB73+HJE23ps7n22UwbfnfsPW3XagGAQmAFoI0aqNad+zUz40HJObCWx27R2nvjqXFZWXcvbUffnVUfWFp9h4wm9M3MJVIJ2bJvffYFCy9Zcum3KqgWRUKyqOpWGYoPaGtDAFAIrAC0SqdTsrGxaHIQxODfO/cgqhmryOnvsqc903b03emGncx3feuR1ySpeWZuSfWfpDjGC7J89dW6c9u0th8AKARWANqdGjgqxRGuuMl5ABkJyfG+A1rbrm+8O3OnLoGVwDqD2Tn1kuPsYLvWlytqNpe9q/nop2GnHtfUP6jtdGcAmIrACsCIzXtXMeDPQ2B9dc9ybXsCFTVg/deB59jLyrLgGfXT55vKtd7ZmUwlZduJrbxYyVM/dfYf9+7V1n4AMBWBFYARY8kR57RJBv65BdalNXdob7sT/Ueyy4KZZaQOphF2YmFpuVSvfXZuVd39zp9NG+X+YuzdfRu0th0ATEVgBWDMj20fSUmM4JPLYLI0ViAn+4/onWWVtLzQVE4QILDfdFZOhZ3Vdfdrv7NzJDEspVG1dJ2XKrm236LKW6V37JLW9gOAqQisAIwewFQU4bqJXJfqfXjwBe2BteVSw+SAllBAHdyoD6iTwXVS/bO2Y5tz7yt9M/cXYj8c/5fW9gOAqxFYARijlgge7mmWEpaX5rRc7/Htf9YaWBV12utT9Q9mAyvLLglG1+6bq+v+pv3OTvVcWdfwdymJ0C9zfRm2rOYuGU+NaW0/ALgagRWAcc/sLJbSykLuZ53tLEg0LAe7d2lddqn+rJ0XosywMrt6/b4ZMzC7mk47y1fLK+fxEiHHvqkC/87zUWclDACYRGAFYFzfWLeUcFdiToPL9w9s1D7LqqgZtMn9boQ36mDK7Oqq2vvEhF/aP2VvfI4zq6qsqrvXSPsBwNUIrACMS6YT8tnhV1kanMMgc3n1nTIUH9DedueHTklRdA4zrYT1K5YCq7t6D/fs0d4f1UubtQ0PczpwHvpj18h57YdlAcC1EFgBWGEo3i/llbdwv+dslwXHCqTpQsxI2z3V8CAziwTWyT6gXmCsrr/fSF88McCVS7n2RXVl1evNTxhZsQEA10JgBWAFtU8qduYHgs9sl/BFwrKpqUL7ATfKeHJUSjgtmL47GXjCcm7olJHA8+6+9bRDDkuB1ey4umosnhrX3nYAcD0EVgDWGE+Oyaq6+9kTmcOAs2Oo3Ujb/Xryc/axMsvqnBj9rwPPOocfmVilURabS2DNsR/+dvJLZlcBWIXACsAqh7p3M+DMIbB+evhlI2FBUdfrODM0BLfA9eGJNq+onG+s//3v1NfZ/scBYLNqx0hIltXcwTU2AKxDYAVgndf2rJBidZAPA88ZDzrVYTd9Y11G2k0dwERYDXY53LNbUqL/oB61hHVp9e3GP79nSySz97i1d6/2tgOAmyGwArDOxZGzUhor5OTZGQ881XUUBfKfE/9npN1SkpRvj71LuwWwFEVC8s6+pyWRihvpe7sv1hivAy8X9dx4dfdyTgUGYCUCKwArfXLoZSnmbtZZDT7VPr6x5KiRdhtPjTl3s7IsM0AlEpJFlQtkJDFkpM+pg8bW1D/Ai5IcTxk/N3TSSPsBwM0QWAFYSc3ULFFL/CJz7BiUe6xETn1npN3UybBnBtqygZVl3UEp7f2HxJTD3XukyII68PLs6v8dedXY3mMAuBkCKwBr1Xb86swWMls380GoWlKdNHDFjaIGvtVnf878Ls51NxyC49+wE5af2j8WU1QfV3e+0sdm134q6KuDltQJywBgKwIrAKutdq65IfDMeDAaCTmhMZXWfwDORGh9s2UNyzT9WrL37r68a4mxmTn15x7sauKF1ixfNKifpdFCiZ75jtlVAFYjsAKwltqbdqL/sBSpZcHZATJlmoPRSObEYJPU8uCn6h+kzXzYb0tiYVlqwcycurdZ/S6swphdO66u/xt3rgKwHoEVgNVU6Hl1z3JnUEponfksyg/HP5C0gWtGJvSOXZJFVbdyP6tfgqr6GQlJeWyenB44avS50NxZR1CdbVs699UWyL6uBkkbWoUBANNFYAVgvdHEkPGBuleL2gM8nBg0uuTv5MAR5/fIBB6Wd3u3hJ3VDqotmy5UGr0CRf3ZEy9CzNeLN188PL+zjNlVAJ5AYAVgPTU4/bn9U+ODPC+W0miB/OvAc0bDhQrLuy9WO1dnmK4PSu51ED39vfH7On89+SV3NefQhiWxAukb7zbahgAwXQRWAJ6QSI07dz1mlrIxSzeTwanay9ox1G58Rqzm7M/ZtqP9vBecM0vyvzv+vtEl5oq673Vh5XwpYnZ15kE1246fHn7Z+EsHAJguAisAz1AngrIEcHazKS80LTTdfM7yw+iZHyZfOPDiwUNhNRqWb49tERu81rxiyu9lum68WQDASwisADxDLS19uv5hws4MBqaXw2GBNJ6PmG5C54CXr4++/Yffj2JrHWTa54vWzWKDk/1H6TM5tumRnmbTzQgAM0JgBeAppwaOMWCdRegoioZkSdXtMpoctuLFw+8nv3JmfqeGIoqNdRCWrUdeF1uuuXqq/iFedMzykCW1hHpJ9Z84aAmA5xBYAXjOBweeJbTOMny8f+AZscV/TvyflEYLWeZtY4lkDuz67PCrYgO1nFxd0cSWgNm3qVrNcHaw3XRTAsCMEVgBeE7vWJcsrrqNA3xmEULUz8Pdu8UWNWd/kYWV8wgilvUTdXXNthNbjV6HNEH9Dh1DJ6Rc9ZOJu2ApMw6r7x3YyEFLADyJwArAk35zrrXgmpSZzrCqn8uq73ROWrWBCiP7uxplYeUtk4f7EEZMBbLMCbLlsVuk4fx/rQirynhyVDbueIyXGjm0a0XlfOkZ7TTdlAAwKwRWAJ40lhyVVXX3MYid5QzahwdfsGa2RQWjUwNHMzOtBFajYbUsNk+O9e63Zp+j+j3U0nEO55p926oD1/59/ENr2hQAZorACsCT1OBr98VqZ58dM3IzGbxe/uu9nXXOqb22UAdCrd/xyORLCJZ+uh9Up9bxE7X3SN94t9hCvchQey5LY4VSHJ3Dy4xZvIRQ7fvE9r9Ys6ICAGaDwArA055vKmUv66yCSlgWVs6X0cSwNUs/J15EfNn61hWzwbyQcKkOptTtJwdfkmQ6KTZRv8/ymrsJqrm0byQktR2/WrOaAgBmg8AKwLNU0FIHMF2+HoUyo9mXWFhW1d0vtlGh9WjvPufgH/U7TgRs2jdfs6qZ5b8TPw92N1kZaDY3r8y0Py8tZh1Yn20sdq4DAgAvI7AC8LRkOiGbm59kUDur8BJ2QuHHBzeJjaE1kYrLhh2Psuw7ry9iMsFfLaV/esffZSjeb2VY3XWhWsqcpcC8hMrlxcSF4TNWraAAgNkgsALwhauXOFJmNrA90LVTbKMG2qrEznyf3cc40cbMts52xk3NWKrTtX9p/8x5KWBjmOkavcCMeq7PsEhINu9dabopASAvCKwAfKH67M+E1BwGt2o/a/94j9hIhaqB8V55bmdJZraVFxOzauPSaKE8s7PYCYS2nhirDgdaVL2ANs4xsJbH5lm3JxkAZovACsAX1D6tx7f/OTtjyAzrbJaJrqz9q7WniU7MBB7u2SOrau9ltvWms+bZ70E23KuTYpsuVl5Rl7aJp8bl2Z3FzK7m2u6xsHNPNQD4BYEVgG+09R1kuWiOywhf2rXY2RdsM/X7/XbyC1lUlZ2Jm5xxZanwFfWg7lWtnCs/tn1kfZsqai915nefKLx4mllYzdRZRdUtppsSAPKKwArAN9ThMW/uXc0MzaxmZi6fxvvRwRetXTI61XBiUL499q4srLwl8zliBBwn6KmgGpsrnx56RQbjfaabaVpUqObFQ479N3vys3pxBwB+QmAF4CvOgS2xzJUtzNDMLrSq8u2xLeIFanlr31i3E1wrquYHd+9jLNN+akb1syOvSvfoBfFK+6l7Qp1DtYLadnkpmcO0Nu1aZLpJASDvCKwAfDfLqsKW+QGkN8vE/l8VfurO/SZekZaUc2jUT20fyaKqW53fXw3g/f9yYeLlTFi+OfqOcy+xqguvONLT7Lxo4J7d/PSLSyPnTDcpAOQdgRWA7wzHB2V5zV1SHGEvXC6DXxX4Wi7VW3tIz7WovZrjqTHn935uZ2n2cxT67jCuzIzkHFlb/7DsOP8/GUuOeu5U2IsjZ6W8ch5XFeXpBYZaAu6FvcoAMFMEVgC+tPNCLHMFigXhwrslM4t3fvi0eHGmXRmKD8hPbR9nZ1sLpNjLS8XVUvdogRRF58iXrW9K79ilKz6rlwzHBzKfyXmpZEHderyUV95i7bVUAJArAisAX1KD+HU7HskO6BgUz2YQPHWZ5smBVvG67tGL8vGhl2TF9rulZGK/5MQpwzbtn7z6d4uGZVnNHfLG3lXOy4OJA7G8NPM9lVq2nDkcSgVwvpuz7SdT666u41dPLQUHgJkgsALwbWA90rPXmZGaGPQbDyJeLNlQoZagtvbuFb9Q981uO7FVnm8qk6U1d1we/GsLr5eXqzt/9pTgrP7vRZULZGPjY/L98X/JULxf/OLc0MnscmaW6+fahyb67NqGhz05yw4A00VgBeBbaibq1T3L7Zo982ApUeEiEnauSjnQ1SR+dGawTX5q/0T+2fykPFn7V+cgoIm9r1cEyxxefJRM/Duyy5LVX6uiruV5fPuf5bU9K+Sbo1ucFy1euFZopjoGT0hF5QIp4gVS/r6b0bAc7N5lumkBwFUEVgC+pq48KZsMHpTZ10FmFlDNWNd2bBM/mlhiq8LiaHLYWQa9vWObc0fou/vXy7ONxbK67n5ZUfNnWVx1m1RULchcoRS9skwNoyrkL66+TVbU3C0r6+6V9Q2Pypt718jXx96RqrM/SmvPXhmI903OkPkxqCrqcy6tvj3n0E+ZUgeRkGxuXmm6aQHAdQRWAL6nrvtw7qnkgJccB/yZK1TUC4BtJ7d6dg/ldKnPNzVIptJJZ59gPBV3DjzqGrkgpwePOaW9/5Ac6t7llKO9+zJ/f+CYs+e0Z7RT4qkx53/v/DvSKeff7fz0aUCdoD7frouVskiFe4Jq/gJ3JOTMzKt7pwHA7wisAHxPDZorKuczO5OXwfLlmcTPj2z2fWidTt+a+I8Kt6pM/XtBr59tJz53llYzs5rv2eHM9w8AgoDACiAQjvbskxLnahOWFeZv/1yBs+9SzRoCV/v40KbJ2UC+d/mdXV1Wcyd3rgIIDAIrgMBYU/+As6SVwXP+Bs7qp9qbCUz1QtNCvmcuvBxzTuyOFkrDuf/S4QAEBoEVQGB0j15gEO3CADoTXOfIwHiv6SaGYYlUXIqic7hKysWVHAur5ptuZgDQisAKIFA+O/xq5m5WlgbnN7Rmf0bPfO8cJoTgOdjd5Mz+sQzYpbAaCUlRZI5zBRP3rgIIEgIrgEAZjPfLQg5gci2wl0YLZMu+dTKaGPb9CbjIGE+OyddH3+YUYJdfgqkXQm/sXRX4g7wABA+BFUCgqJmJX098weDa1btaw859pSf7Wxlc+/y7dHHkrGxsLJJSdaBZtu1ZvZD/75ZaZq1OW05ywBmAACKwAggcNfu3qu5+KZkIWSwPzv9sUCQkZbG58mPbR869pfCXZDoh1Wd/lsXVt/H90fD8UC8Ctp3YyoncAAKJwAogcNRS1d2dNQy03R5kxzL3tT63s1S6Ry+yt9Un352RxJC81bLm8qw6L3xcDKqZOlYvBuKpcdPNDwBGEFgBBHbgre4QZRmj+7NDqo7LY3PlP+3/Z7rZkaMaZlUNBNaQ7OvaQd8FEFgEVgCBpfbfOfeyZu8TpbgfXJ9ueNiZbYW3DMcH5JnGYilS35XJ7wuzqzpe9jzbWMLqBACBuPJimAAAIABJREFURmAFEGgfHXyRoKo5rKurTz469KKzD5KThO2VTqvWScsPbR84pz8X8VLHwLMiLGcH20x3BQAwisAKINDUvrAlVX+S4sgcgquuQbg6TVbNbEdDsvNCpaQlRXC1jAqqB7uanL2Tl+8tZkZVa1iNhOXjQ5tMdwUAMI7ACiDwoqe/d66MYGmw3pmjif3Da+sfkosjZ1j2aIFUOimXRs45B2VxRY25ouq+onK+9I/3mO4SAGAcgRUARGRl7b3MsBoanKs7PNUA/aVdi+X88Cnnfk/oD6qdIx3y6p7lTluoJcCm+gMlE1h/bvuErwEAEFgBILNX70T/kewgnWWPJmaTnOCaDUmv7FkqpwZa6ZqanB1slzf3qmtqMtcQcXK2ydCsvgthear+QUmkub8YAAisADDFC00LpSTGzJItM1zq2qGjvS30UZecHGiVN/aumrJHdSIwmW/7IJeyWKHs72p0XqQBAFgSDACThhMDxgerlCmBKXt9ysYdj8nOC1Fn2Spyk06nnDD0YlOFFKmDxrjSybI7VzNL4wEAl7GHFQCykqmkfH7knxw2Y8XgPbs8NRtc1V+vqrtffmz/SAbGe532Yq/rzU1cGzQY75dfT26Vp+oevKJ/X1HPFCv2c/eMdTK7CgBTEFgBYIqx5KiUV94yOZg3PYClTKmDyBxnyfbCyluc5duHundPBlc1c4iMzO2pmaB6rHe/vLR7sSyqWpBZ+qtmVJlVtfB7lXlx8P6BZ5wXZwCAywisAHCN+yfND2Ap16yD7GyrCq7qKiIVXj89/LJ0DJ5w2i+RCu5BNcl0wvnZNXJBPjv8iiyqulVKooVSHMsEIvqU/d8pVg0AwB8RWAHgKmrQqE7p5LRUL+z5U8soC52fFVXz5YMDz0n36EUnvKk9r34/uEZ9xmQqIUPxfvngwPOytOaObN0UXFFHFIvrIDvjXdfxm+/7KwDMBoEVAK7hzGAbS4I9VcLZmcRMWVg5X17ZvVSaO2ulb6xLUuKfJcPqs/SNd8v+S43OZ6yoWnCNMM+Mqmf6bSQky2vuYnYVAK6DwAoA1/Huvg1SFJ3DckoPFmdmccpezWU1d8gXRzZLa+9e6Rnt9FQ4SEtKese65HjfAfmy9Q1ZUn3b5c86+RnnWFHvlNnVwYn+w6a7GQBYi8AKANehlpZOzF4xY+XxMBK58md55Tz5Z/OT8t9TXzszlZdGzslYckTb1TnXWvqp/uzx5KjT7w5175L/nf5W3mpZIxWVV82gTh6cpA7qsaBuKbOuA/Vc2dy8kqXAAHADBFYAuIGf2j8mrPo2kISvOKFVvZx4bmeJvL//Gfn22LtSc/YXae1pkfPDp51ZWbVPVIXaCepkYqdc7z9XnV6s/rfqrt/esUtyYfi0HO3ZJ7Ud2+T74+87f6b6syucg5LU78V1M0EopdEC6Rzp4BkMADdAYAWAGxhPjsmTtX+dDBGmB7gUd+rg8kxl2LkLsziWCYwqUJRGC52DnZZW3yFP1N4j63c8KhsbH3Oui9m0a7G83vyEvL1vrbzdki371sobzaucf6b+OyqIrtvxiKysu1eW1dwp5ZVzM//OaMHky5Cp/YtZ02D0c9Xmv7R/yuwqANwEgRUAbrJ0c+f5qJSpEGPBIJeiP1Rc/aLCuVZnsqi7TSf+O1cW9c+u/O/+8d9DewavTzvtHgk5LzBGk8M8fwHgJgisAHAT6oAeNUNmeqBLoQ7oA/7oA2oWf+eFKM9eAJgGAisATOOU1lMDR6UsWshyTQsG+xTqwKt9YGKmXS0rV3cFAwBujsAKANO0pWU9yzgtGPRTqAPP9oFIJrSqw7y8dLUSAJhEYAWAGSiZ3MvK/kPjg38KdeDBsPpmyyoOWgKAGSCwAsA0qXsyt53Yan7gS6EO6AOe7ANllfOc65EAANNHYAWAGVLXm5ge+FKoA/qAx/pAJCTfHX+f5y0AzBCBFQBmqK3voPnBL4U6oA94rA+EedYCwCwQWAFghtRhKS/vXmrBAJhCHdAHvNAHSqIhOdLdzLMWAGaBwAoAs9A5ci5z8FLE/GCYQh3QB+zuA2sbHuY5CwCzRGAFgFlIS1q+ObqFa24sCAMU6sD22dW+8W6eswAwSwRWAJil4cSgLKy8RYojc4wPiinUAX3Avj5QGiuUr4++zTMWAHJAYAWAWUqn0/K/098wy2pBMKBQB7bNqqotA6WxAhmKD/CMBYAcEFgBIAfJdFI27HjM+ACZQh3QB+zqAyXRsPz31NeSlhTPWADIAYEVAHLcy3qkZ6+UxeY6BzCpQarpgTKFOqAPmO4DYVld/zcZTYzwfAWAHBFYASAPoXVz85PZZYAU6oA+ENQ+MPHCSv3c37XD2TYAAMgNgRUA8qBntFPK1QFMFgyaKdQBfcDczKpaafHK7qXOiywAQO4IrACQB2pw+mXrGywLJiwSFoPcByKZk4HPDZ3kuQoAeUJgBYA8SaTiUl45z/ygmUId0AeMBdYPDjzPMxUA8ojACgB5tPvi9syyQA5fIjQSGoPVByIhWVp9uyTScZ6pAJBHBFYAyDNnljXCacHGAwSFOtDUB9QhS2opcP3533ieAkCeEVgBIM+6Rs5PzrgQmqgD+kAw+sDK2nt5lgKACwisAJBn6iqLLfvWS0msgKXBFgQJCnXgdh8oixXI6YFjXGMDAC4gsAKACwbivbIwe83NxN2MFOqAPuCzPhAJO9/vF5sW8hwFAJcQWAHApWtu/nfqGyl1ZlktGFhTqAP6gAuBNfNzKD7AcxQAXEJgBQCXjCVHnX1tHMBEWCQs+rMPlEQL5IfjH0paUjxHAcAlBFYAcEkqnZI9ndszS4I5gMl4uKBQB/nuA8tq7pTx5CjPUABwEYEVAFyUTCVk065FBFbCEoHZh31g98UaZ/k/AMA9BFYAcJEazJ4aOOrc0cgsq/mAQaEO8tIHIiFZ2/CQJNMJnp8A4DICKwBo8N6+jZnAytJgQiOh0fN9oCgyR4717ufZCQAaEFgBQINkOikVVfOND7Qp1AF9IPc+8N6BjTw3AUATAisAaPJL+6fMsBIYCYwe7QMT9ylXVM6XwXg/z00A0ITACgAarai5i9BqQfigUAezDa2/tH/GMxMANCKwAoBGrT0tUhotILQSmAjNHuoDJepnJCSr6+6XRGqcZyYAaERgBQDNNu2qyIRWCwbiFOqAPjC9PlAaLZRdF6t5XgKAZgRWANB8zY3a/zaxH45CHdAH7O8DJbGwPLuzhGclABhAYAUAA6H1q9a3ndDqLDWkUAf0Aav7QGmsQM4Pn5Z0Os3zEgA0I7ACgAFqH1xprFCKY2pvHLOtpgMJhTq47uxqtEDebnmK5yQAGEJgBQADUumkNJz7X+bwJVUIDNQBfcCyPqBWQISd2VUAgDkEVgAwJJGKy+r6+7P7WZllNR9QKNTBH/vAthNbJZlO8pwEAEMIrABgUFvfwSlLDwmtBCZCsx19IPNdXFL9J0mmEjwjAcAgAisAGD6A6a2WNSwLNh5QKNTBH/vAqYGjPB8BwDACKwAYdmnkvJSpA5gITdQBfcB4H5hY6fDK7mWmHw0AAAIrANjh66PvGB+oU6gD+sDl0No1esH0YwEAQGAFADvEU2OysvZe7mYlNBIajfeBsPMCCQBgB5YEA4Aldl2ocq7QMD9gp1AHwesDE6d1q4OWhhODph8HAIAsAisAWHQA09MND0uJBYN3CnUQxD6gXhjVdvxq+lEAAJiCwAoAFgXWs4PtUhLhehvTwYUStDrIfOfW73hU0um06UcBAGAKAisAWEQNlt9sWc2drMYDDCVQS4EjIeek7iM9zQRWALAMgRUALAus8eSYlLCX1XiQoQSrDt5qecpZ5QAAsAuBFQAsk5aU/Hj8Q+MDeAp1EJSlwAsr58ulkXMEVgCwEIEVACy1tPr2yQE1hTqgD7jXB75sfZOwCgCWIrACgKVLg4/17iekEFTpA272gUhIFlffZvrrDgC4AQIrAFgcWj848Fx2lpWZVsIr4TXffaAoGpILw2dMf9UBADdAYAUAi42nxuSJ7X+R4hhhhcBKH8jnzGpptEB+O/GF6a84AOAmCKwAYLmu0QtSqk4NjhBYCK30gXz0gdJYoby2ZwVX2ACABxBYAcAD2vsPO4PsqSebUqgD+sD0+0DJlL9+svavEk+Nm/5aAwCmgcAKAB7RdLFKyirnEVoJqgTVGfeB8GRoXVZzp/SP95j+OgMAponACgAesvNCVMpjcwkshFb6wAz7gAqrT9b9VfrGukx/jQEAM0BgBQCPnRzcdKFSSieXBbM8mPBKeL15WA3LxsYiJ6yq7xAAwDsIrADgMWrAfaSn2QmrJdECAhuBjT5wk7CqDlgaGO+TVDpl+usLAJghAisAeFTnyDlZU/8AoZXASmC9zp5V9fPzI5slmU6a/roCAGaJwAoAHjaWHJH39m+U4sjlQ2UIcNRB4PtALCQlsQLZ21lv+isKAMgRgRUAPC4tadl9sSZzTyt3tRLWAhvYw5PfgafqH5ThxIDpryYAIA8IrADgE4lUXDY0PipFxoMDhTrQHFTVTyeszpHKMz+a/ioCAPKIwAoAPtPcWSuLqhY4h82UTC4V5jRhQqQPXyRkVxSo/v3czlJniTwAwF8IrADgM+nsSahfH31HFlff5hzKRGC1IFxR8l4HpdECWdfwdzncvYcTgAHApwisAOBT6goPdTrqv9s+lBU1d0tprMA5iIbgRHj0Q1DdsOMfcrC7ydnDzXU1AOBfBFYACIDR5LCzt+/ZnSWZ4KqWC8dYJmw6eFGmXweqz1ZULZC3Wp6S9r5DmaAq3KsKAH5HYAWAAFEzrif7W+Wbo1tkWfUdl08VnjxdOMzyYYKkkSDtvESJTu2P2VN/o2F5fmeZ1HT8In1j3ZJOp50CAAgGAisABFQynZAzg20SO/ODrN/xiBRF5jiFwMbMp8k+oPqgCq5b9q13rmsaGO9lyS8ABBiBFQDgiKfGpG+sS04PHJemi5Xy28kv5ce2D+Xjg5so1EH++8Chl+Szw6/Jz+2fSvXZn+Vw927pHOmQwXgf30gAwCQCKwAAAADASgRWAAAAAICVCKwAAAAAACsRWAEAAAAAViKw4v+3d+fvdhVlvsD/utvYXLVth7adWlu7W0AQFYFoQFAEQZkEQREEAUFABUFAQJKQ4SScJGQi8zyRhMwDmYe6z7v6RmNMclatvdbetU8+n+epH3g0e41n7/VdVfVWAgAAKJHACgAAQJEEVgAAAIoksAIAAFAkgRUAAIAiCawAAAAUSWAFAACgSAIrAAAARRJYAQAAKJLACgAAQJEEVgAAAIoksAIAAFAkgRUAAIAiCawAAAAUSWAFAACgSAIrAAAARRJYAQAAKJLACgAAQJEEVgAAAIoksAIAAFAkgRUAAIAiCawAAAAUSWAFAACgSAIrAAAARRJYAQAAKJLACgAAQJEEVgAAAIoksAIAAFAkgRUAAIAiCawAAAAUSWAFAACgSAIrAAAARRJYAQAAKJLACgAAQJEEVgAAAIoksAIAAFAkgRUAAIAiCawAAAAUSWAFAACgSAIrAAAARRJYAQAAKJLACgAAQJEEVgAAAIoksAIAAFAkgRUAAIAiCawAAAAUSWAFAACgSAIrAAAARRJYAQAAKJLACgAAQJEEVgAAAIoksAIAAFAkgRUAAIAiCawAAAAUSWAFAACgSAIrAAAARRJYAQAAKJLACgAAQJEEVgAAAIoksAIAAFAkgRUAAIAiCawAAAAUSWAFAACgSAIrAAAARRJYAQAAKJLACgAAQJEEVgAAAIoksAIAAFAkgRUAAIAiCawAQ27/0T3pj6sfTbeOXpa+8da/pCunXJomjnw+PbbkjrRu3/JB7x4AQGMCKxTu4PH9advBTWnzgTVp3b5lacP+ldV/7zmyMx0+cTCdSicHvYsM0Nz330pXv/WRdNmk/3Pe9vTy+9KJU8ddJwBg6AisUIiTp06kFbsXpD+tfTz9YtHN6caZX0pXTfm/Fwwi0S6fdEmaOPKFdO/866tgMmnj81WoPZVODfqQ6Njotklj3h+n2yOLb3U9AIChI7DCAEWoXLJrbhUmrn7ro7XDR512zbRPpF++e0sa2fLndOTEIdd5nIke9q9PuXDP6tltZMtrg95tLgInT51MG/evSrO2vJ7e2PBcemnN4+nFNY/23OJzXl33VPWZ8b22cMfM6uVcjDQBYPwSWGFAvakz3ns13Tjzi62G1PO1mNcYva9bD25wvceJ51c9nH0fRK89dCWmJ7y+/tl0/fRP9+V77cw2YcZn0oMLv1eF2fcPbXaRAcYRgRX6bNmud9JNs77c9we60y16XQ8eP+C6D7lbZ1/e6PrvPLx10LvOOPXE0jsH9r12dou/j6mbX0rHTx0b9GkBoEcCK/RJPDg9s+L+gT/IRbt9zpVVLy/D69rpn2p07VfuWTjoXWccWrtv6cC/187VvjPjs2nOtimDPj0UPjVn9rbJ6b75E9K3p30yXTH5kvStqR9P98y7tppGEUPcgcESWKEPokfzx3OvHvjD25kt5oAxvOJBvMl1X79/xaB3nXEophwM+jvtQu2Rxbel4yf1tvL3Dh3/IN31zjVjvuDdf2yPUwcDJLBCH34Qbxn96sAf2M5uUYmY4RW9AbnX/IrJH6ruR2jb7XOuGvh32ljtJ3O/kY6dPOri81dPLru71r3z0KLvO2swQAIrdCiGEsWwolIf3hheMVQt95o/sOCGQe8249R1Ayi01KR5UceZv89jrWF9usUwYS/7YHAEVujQy2ufGPgD2vnaY0vucO2H/GHr1tHLal/vWNP3vQ/WDXq3GafqPviX0GZueX3Qp4sC7D26K+u+2XxgzaB3GS5aAit0ZNvBjelrk/954A9n52uLdr7t2g+53Ue2p4kjnx/zWl85+dI0b/u0Qe8u41jcY4P+TqvbojfYfFZ2HNqSdd+s27fMSYMBEVihIw+/e0tPD1Ux7/V3K3+R5r7/VtrywfrqbXDMv4rqvjE0Kf5768GN6d2do2nyphfSU8vvTTfXXC7nzrnfdN3HiQ+O70+PLL41XT7pn857H63Zu2TQu8k4N0yBNdr0914Z9CljwARWGB4CK3Rgz5Ed6fJJlzReJ3XD/pWNt73/6J4qwN42+4pzfv4NM/8j7Tmys9XjpYyHr8kbn0/PrPhZ9fLi5bVPVkvYxJINUFJgfWPDc2N+Xty38XLuyIlD1Xfa1oMbqvv57a1vphfXPJruXzAxfeOtf2kcWKMyLBc3gRWGh8AKHXh13VPZD1DXTf+3tHz3/Fb3I+YsvrD6V+n+Bd9NP1swMf15/dPp8ImDrW4DoO3AWnce94IdI7VHlpzZYrrG0ZOHXbiLmMAKw0NghQ5EBd6ch6cbRr6Qdh7e6loAQ2kQgfW0E6eOV9V/c0Nr9Nhy8RJYYXgIrNCyGMaWU2wp/r+9DAEGuJgDazhy4nD6zozPZgXWkS1/bn0/GB4CKwwPgRVaFgWSch6aHl/6E9cAGGqDDqzhxTWPZX33xrJjXLwEVhgeAiu0bPHO2VkPTct2veMapFTNrV26a276y4bfpWdXPJAeW3J7emjR99Mji29LTy67O72w+pE0bfPLadWeRQNbkmL/sT1VdeboRc+16/D7adbWN9JvV9xfDV+8Z9616d7511cVfv+09vG0eu/iVvbxwLG9VVGtGCbZlZg7GOchzkcT2w5uSjPee7W6zlE8JwqE3TTry+l7M7+Ufjh6WXVe4ppP2fTHtPHA6lSiKAIUBYDi2v1m2T3p0cU/Sg8t+kH69ZIfV9c45rHH/Mpdh7dlf/bB4weqJYuGaemVEgJrfH/kfPf+ftVDqV9OpZNVTYFZW15Pf1j1y/SrxbelO9/5Vrp19uXVHNwbZ34x/eDt/063z7ky3Tf/O9X9/8q631TLj+07ujsNQ7XyOP+vrX+mKvoWNRNun3NVumX0f9KNM79U/X3HutExXSYq6EcF/PgO2Lh/VaPv0zYIrDA8BFZo2dz3p2Y9NEVF4WEPmq+se7JaPiUeWqM68ndHPlf1HMcD2lgP5m9u/EP68dyrz7ssy/mGUcfSPBFo4kGpSxEcnlp2b7pm2if+uv0rp1xahaolu+aO+e8X7piZ7p737VrHFQ+rY52z8z14xQPut6d98m/7OPnSdPc711ShqS1r9y1NDyy8MV015f/+dTvXTP14te2xglmsS/z8qoereyPn7yNaDPWMh/wI/YMU1zsC6Zn3Qp0WQfzZlQ9e8NrG38Lzq//+/Fwx+ZLqb+Od96em0pUQWOMlQs51eWbF/alLx08dS3O2TUkPv/vD9K2p/5p935/Zbp71lSpgR8ArRbx4il7t81Wkr9uufusj6cGF30sjW16rhna3KT4vrnOsvdvLPuYWUHx6+X1VhWugHQIrtGx026SsH7emvVSlDH++0LyxCK9TNr14zpAbD19Xv/XRnh8O4mEn3tbHA3/botfzm1M/dsHtxwPb+UJkBMbc44ntvX9oc+19jEB8ZoA8V3ti6V09n4t4OXChlwqxxMi5ithEkI3ex6bLPJ39oiKCX78rXcdayNH71cbDbPSsnz1nffuhzWPOv3xi6Z2pZCUE1nihkXMtnlv5YCf7Ed9FUZ39zBdIbbbouZy3fVoalOhJrfsSLrfF90gEzH1Hd7WyrzGCpYv9rNNixAXQDoEVWhYPEjk/ak161EoRQ7zGOr4IKpsPrP27Xqrc4ih1WrxBX7hjVqvHF8P06mx73b7l/xAixwq6Y63FW8cHx/bVXotydOubjc9DhO8rJn9ozG1MHPn83637GkOge1kr80LbWbdvWepahO17513X+v5H8I/e5hhaHX46f0KtfzfIkDIMgTW+S3OuQwznblPc+zFipNfe1Jzg2s+CffEirYu/h3O1q6Z8OL205vGepjbEqI6ckTtdtGH+fYeSCKzQssU7R7N+0Ka/98pQXoMYDlb3GOPBI8Qc1Bjm2NXDQTycxFqz/X74/ePqR//672IIYK/HeO20T9Xax5gPV/czH1hwQ+NzMXnj87W3s/nAmurfvLTm150+CEavcrwY6LIXKYY7d3kMMbw6euPq9j4/uuT2VKoSAmuMiMg5/+ca/dFUTO24q8GIijZGHcRc1zNfFHVh6uY/VSGy38cXL0W3HtzYaJ8nb3qh7/t7dosXGEDvBFZo2aYDq7N+0H40+2tVQY5hs2z3vNrHGHMco7etXw8J8QDX8/Hteqf29k4PuV2+e35rgfx079uFRJXTup8XxU+aikBedzsR9OL89+M6R0iKc962mDNap0e5jZbTYxXDiUtVQmCNIj45576tQmfxnT9hxr/35X45X4t5sjFntm3x2/TMip8N9NhitEqTv/OY9z7I/Y72u5U/b/2awMVIYIWWxfy63B+1GB44bJbsmlP7+KKY0FjzLNtu0dPZr+OLAlMx5+ra6Z9qZd9jGG0dL66pHySjEmlTUQwo515uY75q3Ra9oG3Ndzs9QqLLUQC9tJgTXaoSAutjS+6ovQ+xv0dP9l7gJ6pYdzHsvUm7b/6E1ivuRpGxQR/X6euVW1H/tfW/Hfh+R7VwoHcCK3TghpEvZP+wxcPWMFUVzAl0g3or30tV2dzAGoWF2tr3WPphWAPrIFpUGG1rjl4vc4+7bgLrhecbR/Xuuufy5wtv6vl+2Xl4a1URdtD3xZktlgNrS7x8GvTxnNmiSF/OMldRL2HQ+/zuztHWrgdczARW6EA8NDQtHBTrkPa7Cup4DKzRYr2/fhzfTbP+s9X9fnPj72vto8Da3vDOmAMYS8gM+p69UBNYzy2WtrpjzlVZ53JRjwXaYqhsqfdLDI3uVQStQR/H+ZaIqtszHn/T33/7vwa2r/G70PXcYrhYCKzQgSgG08sP3denfCQ9svi2ai5dqeF1GALruSr4ln58UUG5bk+7wPq38/aLRTenfs5/HEQTWP9ezPOOysk3zPyPvp/HKO426PvhQkt99TK65NDxD4rrOW66fm7ML46q4v3ex1hPuaQ1c2HYCazQgZhH1NbSLVH8JXoPYt3SBTtG0r6ju4u4Zm0FultGv1oVx4jPi2UIorckljLYc2RnNfwrgkQM32s6BzbW4Rvk8eW0GI6aE7CHKbBGBeeYYxeVO2Mpjlh/OP5O4nrHer5vb/1LNTKh6XWOv5OmaxrHfsQDZtM5tDHPb9726dVxxFJDUfwmqsbGA+vMLa9X6zG2Mc/xYgus0TsV3wURoHYf2V6dz1i6KkahxAu9qKadew7jOjStOnvagWN7G1/PqOobfwcxv3LV3nerNXijUnQcZ3y3R3XyeOEZ6w330jsYU0wG8fc+ceQL6anl91ZrF8dyZvE9Hn8P8eI1lseK5aiicm4M448Xs03/1nPWqo4XG2v2Lknzt8+oXnCcbm9tejFru6+tf+bv/v25WmwjRnu0PZcYLnYCK3S4DECvD6jnaxGG4yE4ho7GQ9wghh31GuhiuYKc+T0xR+3BhTc2ekBsEmTaCKwRvmIpknjRsP3Qe+n4yWNV72kEtgjiTy//abrznW+lW2dfnp5adm91jDmGJbDev2Bi9bBaRwTYhxZ9v9F2ohJ1E00qWEdhqaeX31d7BESEkjiPvRQfGy+BdVAtgk7Ma+xVvDxscr/EXPeY95ojAvoPa6x3/Y/b+6fqBWCTMN7kHo1e7njplFPxPr6Xn1v5YNbc49PtV4tvS72K76ScbfZj7Wfg3ARW6EiEyCie048HsehpiB6HeKt95ETvlS+7DnTxsNF0QfhnVzyQvb14edDP44sWLxSiV6hLwxBYozesiRj216+CMxEEc8PAnG2TG20retCaFGWLJrD29h25YveC1Kt46ZS7Pm8Esuh9ayq+K+P7PfeY47syV/Qi5m4nllvqZerKyj0L07em/mveOZ18aeMRFacJrDA8BFboUASW66d/uvFDVpMWb8fj4aaL9SnbCHS9VrGMFwE/WzAxa5tQtTzLAAAaJ0lEQVQxBK9fx9fPpQxKD6y9nIcYUpdbSOcHb/939nb2Ht1VBdCc7Uza+HzqRQwbvnHmF7PPp8Cafw/GtY1pATFEuw2zt00eSKXY+N6LtVZzthshMHdoam4BuXgp2/Tl45li+kduL/3r65/taZsCKwwPgRU6tvnAmtbW58xtN8/6SjXcMebwtK1JoIuHoTZ6gGOoW85ambEcQs5QtabHF+2Pqx9N/VJyYI1el17lXoMY/p07PD7mmOZs47bZV7QyBH/rwQ3Zc/gE1vrn6tvTPpmeWHpXVXSnTbmhMfahLfGiI3fe7rLd87K+V3NfjubMJR3Ly2uf6GT5r/MRWGF4CKzQBzF/MXp/mgSgNlqElbbXg2sS6Nrch9whcjnr9zU9vljmIjcYj8fAGi8TYuhrG2K/c7a97+iuTpegygkAba9zKbDWn+MfVXxjqGkM4W1L/G3nDF2NocAxJ7tNkzc+n3XP/G7lL2p/dgzf7+qz64je4JzqxPE9EwW5mhJYYXgIrNAn8eAUBSZyegbbblEAqJcf+F4CXZPhmhcSVVlztj9ry+udHl+0eEDup1IDa69LzPRS4Cb3xUSMQsgJQm0WOIsesygEVHf7Amv+d15U841iR23MX42XMDnbjuJhbYsAnDN0Nl6i1ZVb7Kytl1Jn+t3Kn2ftQy9FtARWGB4CK/RZ/Mg/0KDabZsLr7cxjCs30L2y7jepTTG0OKea5QurH+n0+G6fc2Xqt1IDaxT/aksUN8rZdiwpkdOjE8OI6352vHBqW05hNoG1t+++u+d9u6chwrnVpGOJky7k/H7EsPO6L1lyioHFcmRdiKr3Oec4etKbElhheAisMCCxRt2Ty+5uZX3G3BbzoHpdizA30OUEibpiPmHd7T/87i2dHt+f1j6e+q3UwJo7LPdC1u5bmrXtnGJj2w5uGngAiWGVdbcvsLZThKlpsZ5YLzrv76CbNbOjmFnOftRZUipGAOV85m+W3dPJscWw65wXkTFqqCmBFYaHwAoDdvTk4TRn25QqUPUzvMbwxv1Hmy8LkBvojp08mtoWy+PU3f5dmWtY5h5f11WZhyWwRoGrNu04vLWzOaZxzXI+O+ait+2NDc/V3r7A2t73X6x7nDu8O+f7JgrtdWXRjlmtT1XYfmhz1mdO2fRiZ8eX8yKyl78JgRWGh8AKBYlqvqv2vpteWvN4NXwtt4poPyu55gS6OI4u5FSV/P7b/9XZ8UXrtcd6vATWGFbYpuit7Sqw5ixREr0+bc5fPW3Kpj/25eG8aznzKn+95MfVuqRjtXfen1pdo5h/PnnTC+mVdU+mp5fflx5YcENVcTx3OaKz26vr8oaTxkuvEq7VzsyXOKNb3xzzM2OObynz9R9bckft/bhx5pcab0dgheEhsELhAXbD/pVp6uY/VcOHo3BRrw9pvRYjahLoJsz4TOpCPMTW3Yfvjnyus+OLFgV0+q3EwNp2ca39x/Z0Fljj72rQ9/DFGFijV7kNh08crCqPP7X83vTNqR/L/u6LAng5weuHo5cNpPDYuY475zjjHhtLDHfP+cyY0tKVZ1c8kDW9pSmBFYaHwApDJqr8Lt45mn674v4qhOU+pJ3d4jNyF5fPDXQx/LgLOWtoxnIJXR1ftIMtL19Rh8DaW2B9c+Mfal/fm3oI/BcisLbjyIlD1ciUnCJaucXSolc3pxe5K9HTn/Piss4LgpzRBtF2Hd7W2fG9uOax2vsR02iaElhheAisMOTW7F1Sza3K6eE4u0Ul1mEMrDFksO4+xPqJXR2fwDqcPaxRfKfu5/5o9tdSFwTWdsXQ1qumfDjrnllac2mUnBeE8UKxSzFXvO6+xFDqsYxsea2Y77vXN9T/u4wXFE0JrDA8BFYYJ2Je04MLv9cosMYyCcMYWBfsGOnsTbzAOv6HBL+2/re1P/eOOV9PXRBY2zd180tZ98xDi35Q63Pje6zuZz7bwRJIZ/rW1I+3WsF8xnuvZp2zGJbclZyRD5dPuqTxdgRWGB4CK4wzMa8zd55rvK2P+bI5BNb+9TicjyHBvQVWPazDPYf1QkujXD/907X359vTPjmuA2sUpxuvgTXmITclsMLwEFhhHMp5ED/dNh1YPXSBNYYy192HeMDr6vgE1uHsYc15ML551ldSF/SwduPxpT9pvYhQVMDOWTanSzlrldaphjxr6xtZ56uXJdHGEvtbdz/iPDQlsMLwEFhhHIoehlszKlpGi/mgwxZYp7/3Su19mDDj3zs7PoF1OAPrW5te7KzKdBcP56oE1zdt88tZ902shT2WeGlR9/OirkBXokhezrG9ufH3Y37m3PffyvrMWLe1KzlTEHJrE5xJYIXhIbDCODVp4/NZDyAxlHjYAutfNvyus/VBBdbxP4f17a1v9qUa6YU8t/JBgbUDucu0xMuLsdw2+4ranxdrxXYlltDKObZYvmksi3bMyvrMWG6tK7HWbt39iKHfTQmsMDwEVhinNh9Yk/UAEgVohi2w/mHVLztZviL3+KKZwzp8gTX3GncxDPLnC28SWDsQ66vmXNs6lXTvm/+d2p8X4bYrMXw559givI9l3b5lWZ8ZAbcrsYZt3f24ZfSrjbcjsMLwEFhhnPrg+P6sB5A685yaPux/fcpHOjnG6MWouw9RQbmr4xNYhzOw5r7UiSVT2h66n1M8x5Dg+uJa5Vzb3696aMzPfHLZ3VlzK+P6duHtrX/JOrb1+1eM+Zl7j+7K+sxX1v0mdeWGmf9Rez/uXzCx8XYEVhgeAiuMU0dOHGp9nlNpvVM3zvxiZ+siCqzjf0hw7t9IDEFv0+q9i7O2L7DW9+7O0dYDa4S0nM/cenBD6kLsa85+HDi2d8zPjHCdU8jpl+/e0smxHTlxOKvK/dPLf9p4WwIrDA+BFcapbQc3Zj3URAGjLgNdnXlUOXYf2d7p9gXW8R9Yw4QZn6n92Xe9c02rxxYP/QJrN3KXaXlxzWOtz/PMfQlY1w8zCurlFJvLmaN77bRPVcWfBj33OIprNSWwwvAQWGGcmrXl9awf/uiR6DLQxcPQqXSqteOLh8Gc7a/dt7TT4zOHdTgDawwpzFnzsa2RAlsPbkyXT7pEYO3IsyseyDq3r61/ZszP3Jc5bPbW2Ze3fly5w9h/ljFkNmfIc7SFO2YOdE53r8Wfdh7emrWtmOcLDIbACh06fupY9cY4ChrFG//oFeyXO+d+M+vHOHpkuwx0vb4N76U34KopH66uRZfHJ7AOZ2B9dd1TWZ8fQahXJ04dz7p/TzdDguv73swvZZ3b0a1v1vrcm2b9Z6cvytoOlW9seK72Z8/OWNc62n3zJ7R6bLsOb0tfm/zPWUvanDx1sm/VlmMIPzAYAit0ZOOB1f+w0Hz00Dyy+Lb03gfrOj3vI1v+nPVDfPVbH80uENIksMbSIG0ce+6agVHdM5fAenEMCV6zd0nW5185+dKqd7SpGGXwm2X3ZP/tRBNYu/l+iBb3QdvLEJ3+e4gXFG2IwJQzvzNazr168PiB6jcq5/PnbJuc2vLT+ROytv1wj/Noc9ezXbTz7daOFcgjsEIHdh1+P11zgeqf8dARpfu7WMsuenTjoTrnhzgeFHI1CazRYs7gjsNbGx9fFBD57sjnWl9jsdfj08P6twf0YQqsESBjnl/ONuL+23NkR/axRC9/PGQ3+buJJrCOLUax5FRejha9esdPHuvkBUe0p5bd2/N0iPhNyame2/RvMTc0XjPtE9Uw5V7ljnSI9s77U3vebk6hqdyl34D2CKzQgZg3lLOOXPxYbz/0Xk/bjMAUC67nzouLNqUPge7MFg+UTd5WHz5xMHso5ZVTLm0UJgXWi6OHNTyz4meNXrzM2z6t9jbi4frsERe5TWC9sCW75qbrpv9b9nn9ydxvZN0vt4z+T/Y2osBWVKVuIl5s5r5UiTZ50wvZ25q3fXqjkTNx7puIlzhN/v6um/7pVoo+TRz5fO1t3jHnqp63BzQjsELLYghW0wfSCK/PrLg/jW6bVL21Pnby6Hm3E8PMYnjt21vfTA8t+n7Wm+KzA12s2drPwHq6RS/z5gNra21v2a53Gj3wP7r4R9nH1uT49LAOb2DddnBT9lDL0y1eoLyy7smq5y16waKn7tDxD6o54XEPxRDSGzPnU56vCaz/KM551AeI0Nn0vOYuVzSy5bVG24neyOili7mTdaeVPPzuDxvdmzHCJ17w5Yo5obk9uWfOaV21Z1Gt6SWxb1G5/TszPttoW22tAxvrc+dsd+aW11vZLpBHYIWWxfDTNh5OzywsEeuNRhCIN/sR2q6d/qnsuUbna9Er20QbgfV0+9Hsr6WX1jyeFu+cnTYdWJ32HNmZtnywvgoff17/dPW/N/nceNBrOmdWYL14elibVCcdRBsvgfXeedelF9c8Wqu9sPpX1bqjz658sFpzM2oA3L/gu9V3QvTs9XpO40VfnXVKzxSB7Ptv/1dP243v8qeW31t9703e+HwVul/f8Gz1txa9sfEd38vn97JmcMxL7fU368GFN6Y/rPplFdBjybQpm/6YXl77RLUe9u1zruzp9+v66Z9OR08eTm2IfcrZdux39AhHxeAzf6fipdXd875d3ZMxgiju034WWYTxTmCFlkXAGvSDbU6xpfjRHXRg7ar9avFtja+jwHpxBdboEb1i8ocGfs9eDIG1pBbho4nlu+c37pXvusXfYG5V9LNF+Br0cZyvxQiktizdNbez/Zw48oVGvdzAPxJYoWVz35868B/0fiwzU3pg/ebUj6V9R3f37fgMCR7uwBpeXPPYwO/bYQ2sTackDLJdO+1TVWXcpqLnd9DHcK4pHnWnWYxdvOpfB348Z7fouWxT9JY3mR9ct0UPOtA7gRVaFkOVoiDEoH/Yx2q/XvLjno6z9MAaS1v08/gE1uEPrDF/r5e5kLkthhc+tuT2cRFYcyvzDrpF7+jinaM9HXMU/Ykls0o6pjaXmYm/pZJ6zmMY+JET7QwFbjqCJLfFdB6gdwIrdGDlnoXpqikfHvgP/PnaAwtu6HltwNxA18/hls+verjnayiwXlxDgk+LAmQ3z/pyX+7TmJ8Zc/vGQ2BtWqhnUK2XOZ5nv6C8c+43iwirTZbvGktUwo5lfwZ9fPG9kjvXOKc3+eq3PtLZvncRsuFiI7BCR6IYw4/nXj3wH/qz25PL7q56kvod6KKoSD/mfDUtIvWPx5c3t6mXoYX9GMJ686yvNN7OC6sfySom06Z4SM25DjG3sFcxlDwKw3R5n0b11xiOOF4CaxTZ6fpvu40Wy369ufH3rR57VIbuZX3dXlsMx25jTdLzib+pmGIxqOO7Z961VeXtLsUSQF3tv8AKvRNYoWMxNLXXipJttBiyN7vF4WJNeiBjCZ6u3tbHg+ir655u7fhi7cOcoZ2n0qnUb/Hg3dVak2eK6qWDClXxciXnRUcsB9WGWFLqf9c1bv8lS1RKPb2G5HgJrF0+8LfVYgmVKLLTlVjPut8ja24dvaxxJfQcOw9vTXe9c01fjy1+K15e+2QrL1jHEt/fXQzv7uVFIfA3Aiv0ybs7R6uhuP2uRBpv32NJiLbnWDYdMhvr9H135HOtHuP3Zn6plZ61M8WQ6bpFR2JI4CDEOo11z1H0kja1fv+K2tt5ac2vU9vqziuNdS7bfrhdvXdx1cPTxn0aa7bG382ZxktgjR6wXpdi6arF33EskdOPnq4dh7akRxbf2vkxxb0ew5pPv/johwh1I1v+3Hjt1JwWSxf1I4ifPbw7fqPbPI42XxLDxUxghT6LOXnRG3Hv/Ourio5dzvl5bf0z1Zy8LvQyxzNK/ce8yF4ri8aD05sb/9DzEg7nE+sHjrUPcQ0j1AxKFM8aax8nzPhM+uDYvp628+jiH425nYkjn+9kaHSc3zr3ysiW11JXYn3g3638Rbpx5pey7tE4J7F+aMxr77VnMpYaKdmqve+m66b/W2ffabm9c/GiIf6Gj5w41PdzEZV6f7PsnmrpsDaPK+ZXx8iKQS6XEkOg47zGC5g2jy2+S+N7Zs3eJQM7tgjl0VMeLwR6HdEU5whoh8AKAxRv/GOuZPRK/XT+hCpYNPlxjCGp8SAd645Gj832Q+91vu9tFCWKMB29BDHXt27Pc/TORkiLCp/9GCoWyxSdr0f4ltGvDjSshpgHGYvWx4L159rH6DFoYwH7ONd/Wvv4eYuT/GLRzWnv0V2pK+v2La+qhJ7vxUWXc/jO9dJp8c7Z1YNtFE6KtTyfWnZvembF/VVPdoTQRTvfrnU+4trl9DqVLl5YTN74fPrZgolVWI/7pYth1TEFIF5iRDCIERbRC//YkjuqdbBj2G/0lpUghpYv3DGzuj9ifnfuCJvoHY4XFXGfxEuT0mw7uCm9seG5ajhtLBOUew1vmvXl6vs8ps6UtGZp3D8ROOPFct0Xq3EvPrjwe2l065vVdQfaI7BCYeJHe+P+VdUDbxQqikD36rqnqvXcXl77RHpt/W/TpI3PVz+K8WC29eCGniv+llBFN3pB1u5bWs1zjWOOuUtxvDF/Ms5DVH/tMhCNFQpX7F7w//frieqlQMxxLUk8YMWDcdwfce5i6N6Ow1s7eckyf/uMKhjEQ3T0au46vC31Szy0R1CM6xDXI4aCx/UZVjFcv+7fULwUYLhF72T0vsb3e6yDHd9v8XcU3+8xBz96T9/e+pfq+6aff1dt2XNkZzXtY3TbpGr0S3xP/O9v15Pp9fXPVpWMF+wYqX7jhqUYUQy7jrnxUTE5Xsac/j2O6xW/BQt3zErvH9o8kDoGcLEQWIFxu+wLlO7nC2/KqvANABcbgRVoRGCF3kSPzDVTP147sEavMgBcbARWoBGBFXoT859zRinEUFEAuNgIrEAjAiv0Jgqt5QTWmK8OABcbgRVoRGCF5uZsm5wVVqMKtKIuAFyMBFagEYGV8WzjgdXpvvkTqqUqbhj5Qnp6+X2t9XBGNedYJzQnsD787i2tbBsAho3ACjQisDJexZIi51p7MdYTjaVl/ncpnfwlLPYf3ZMeX/qTrKB6us3ZNqWTYwWA0gmsQCMCK+PRweMH0nXTPz1mgPzOjM+m51Y+WK0p+cF5lmw6eepkeu+DdWnW1jfSAwtvTFdM/lCjsBr7M4i1lgGgBAIr0IjAyngUS8c0CZXXTPtEumnWl9Ptc65MN8/6ShVoz9VL26T9ef3Tgz4tADAwAivQiMDKeHTb7CtaCZlttYkjX0jHTx4b9GkBgIERWIFGBFbGo2unfWrgIfV0u3zSJdV8WQC4mAmsQCMCK+NRVAQedFA93V5b/9tBnw4AGDiBFWhcSTXn4fvYyaPONMV7ctndAw+q0V5Y/atBnwoAKILACjSy58iO2g/fE2Z8xllmKOw+sr1WleCu2pWTL03TNr886NMAAMUQWIHGfjp/Qq2H8BfXPOosM1Sh9ecLb+p7WP3J3G+kzQfWDPrwAaAoAivQ2N6ju9IPRy+74EP4LxbdnI6fUuWU4bNx/6r02JLbW1ue5nztx3OvTvO3zxj04QJAkQRWoCcnT51IM957Nd31zjXpm1M/lq6YfElVafWBBTekBTtGnF2G3uETB9PIltfSgwtvTF+f8pFWqv/eOnpZenHNY+m9D9YN+vAAoGgCKwDUdOLU8bR67+L0xobn0uNLf1L1jk4c+Xy6+q2PVi9rLp/0T+nKKZdW/3399E+nW0b/J90777qqmFP8m6iuHQEYAKhHYAUAAKBIAisAAABFElgBAAAoksAKAABAkQRWAAAAiiSwAgAAUCSBFQAAgCIJrAAAABRJYAUAAKBIAisAAABFElgBAAAoksAKAABAkQRWAAAAiiSwAgAAUCSBFQAAgCIJrAAAABRJYAUAAKBIAisAAABFElgBAAAoksAKAABAkQRWAAAAiiSwAgAAUCSBFQAAgCIJrAAAABRJYAUAAKBIAisAAABFElgBAAAoksAKAABAkQRWAAAAiiSwAgAAUCSBFQAAgCIJrAAAABRJYAUAAKBIAisAAABFElgBAAAoksAKAABAkQRWAAAAiiSwAgAAUCSBFQAAgCIJrAAAABRJYAUAAKBIAisAAABFElgBAAAoksAKAABAkQRWAAAAiiSwAgAAUCSBFQAAgCIJrAAAABRJYAUAAKBIAisAAABFElgBAAAoksAKAABAkQRWAAAAiiSwAgAAUCSBFQAAgCIJrAAAABRJYAUAAKBIAisAAABFElgBAAAoksAKAABAkQRWAAAAiiSwAgAAUCSBFQAAgCIJrAAAABRJYAUAAKBIAisAAABFElgBAAAoksAKAABAkQRWAAAAiiSwAgAAUCSBFQAAgCIJrAAAABRJYAUAAKBIAisAAABFElgBAAAoksAKAABAkQRWAAAAiiSwAgAAUCSBFQAAgCIJrAAAABRJYAUAAKBIAisAAABFElgBAAAoksAKAABAkQRWAAAAiiSwAgAAUCSBFQAAgCIJrAAAABRJYAUAAKBIAisAAABFElgBAAAoksAKAABAkQRWAAAAiiSwAgAAUCSBFQAAgCIJrAAAABRJYAUAAKBIAisAAABFElgBAAAoksAKAABAkQRWAAAAiiSwAgAAUCSBFQAAgCIJrAAAABRJYAUAAKBIAisAAABFElgBAAAoksAKAABAkQRWAAAAiiSwAgAAUCSBFQAAgCIJrAAAABRJYAUAAKBIAisAAABFElgBAAAoksAKAABAkQRWAAAAiiSwAgAAUCSBFQAAgCIJrAAAABRJYAUAAKBIAisAAABFElgBAAAoksAKAABAkQRWAAAAiiSwAgAAUCSBFQAAgCIJrAAAABRJYAUAAKBIAisAAABFElgBAAAoksAKAABAkQRWAAAAiiSwAgAAUCSBFQAAgCIJrAAAABRJYAUAAKBIAisAAABFElgBAAAoksAKAABAkQRWAAAAiiSwAgAAUCSBFQAAgCIJrAAAABRJYAUAAKBIAisAAACpRP8PULPAsT/CUl0AAAAASUVORK5CYII=;" vertex="1" parent="o4NIW-_CmcYcTrLImoJY-16">
          <mxGeometry x="150" y="20" width="230" height="192.81" as="geometry" />
        </mxCell>
        <mxCell id="o4NIW-_CmcYcTrLImoJY-17" value="" style="group" vertex="1" connectable="0" parent="1">
          <mxGeometry x="1640" y="1120" width="1040" height="380" as="geometry" />
        </mxCell>
        <mxCell id="o4NIW-_CmcYcTrLImoJY-18" value="" style="rounded=0;whiteSpace=wrap;html=1;" vertex="1" parent="o4NIW-_CmcYcTrLImoJY-17">
          <mxGeometry width="1040" height="380" as="geometry" />
        </mxCell>
        <mxCell id="o4NIW-_CmcYcTrLImoJY-19" value="" style="rounded=0;whiteSpace=wrap;html=1;" vertex="1" parent="o4NIW-_CmcYcTrLImoJY-17">
          <mxGeometry width="210" height="60" as="geometry" />
        </mxCell>
        <mxCell id="o4NIW-_CmcYcTrLImoJY-20" value="Databases" style="text;html=1;align=center;verticalAlign=middle;whiteSpace=wrap;rounded=0;fontSize=38;" vertex="1" parent="o4NIW-_CmcYcTrLImoJY-17">
          <mxGeometry width="210" height="60" as="geometry" />
        </mxCell>
        <mxCell id="o4NIW-_CmcYcTrLImoJY-1" value="" style="sketch=0;outlineConnect=0;fontColor=#232F3E;gradientColor=none;fillColor=#C925D1;strokeColor=none;dashed=0;verticalLabelPosition=bottom;verticalAlign=top;align=center;html=1;fontSize=12;fontStyle=0;aspect=fixed;pointerEvents=1;shape=mxgraph.aws4.rds_postgresql_instance;" vertex="1" parent="o4NIW-_CmcYcTrLImoJY-17">
          <mxGeometry x="40" y="140" width="140" height="140" as="geometry" />
        </mxCell>
        <mxCell id="o4NIW-_CmcYcTrLImoJY-25" value="" style="sketch=0;outlineConnect=0;fontColor=#232F3E;gradientColor=none;fillColor=#C925D1;strokeColor=none;dashed=0;verticalLabelPosition=bottom;verticalAlign=top;align=center;html=1;fontSize=12;fontStyle=0;aspect=fixed;pointerEvents=1;shape=mxgraph.aws4.rds_postgresql_instance;" vertex="1" parent="o4NIW-_CmcYcTrLImoJY-17">
          <mxGeometry x="270" y="140" width="140" height="140" as="geometry" />
        </mxCell>
        <mxCell id="o4NIW-_CmcYcTrLImoJY-26" value="" style="sketch=0;outlineConnect=0;fontColor=#232F3E;gradientColor=none;fillColor=#C925D1;strokeColor=none;dashed=0;verticalLabelPosition=bottom;verticalAlign=top;align=center;html=1;fontSize=12;fontStyle=0;aspect=fixed;pointerEvents=1;shape=mxgraph.aws4.rds_postgresql_instance;" vertex="1" parent="o4NIW-_CmcYcTrLImoJY-17">
          <mxGeometry x="600" y="140" width="140" height="140" as="geometry" />
        </mxCell>
        <mxCell id="o4NIW-_CmcYcTrLImoJY-27" value="" style="sketch=0;points=[[0,0,0],[0.25,0,0],[0.5,0,0],[0.75,0,0],[1,0,0],[0,1,0],[0.25,1,0],[0.5,1,0],[0.75,1,0],[1,1,0],[0,0.25,0],[0,0.5,0],[0,0.75,0],[1,0.25,0],[1,0.5,0],[1,0.75,0]];outlineConnect=0;fontColor=#232F3E;fillColor=#C925D1;strokeColor=#ffffff;dashed=0;verticalLabelPosition=bottom;verticalAlign=top;align=center;html=1;fontSize=12;fontStyle=0;aspect=fixed;shape=mxgraph.aws4.resourceIcon;resIcon=mxgraph.aws4.documentdb_with_mongodb_compatibility;" vertex="1" parent="o4NIW-_CmcYcTrLImoJY-17">
          <mxGeometry x="860" y="140" width="140" height="140" as="geometry" />
        </mxCell>
        <mxCell id="o4NIW-_CmcYcTrLImoJY-28" value=". . ." style="text;html=1;align=center;verticalAlign=middle;whiteSpace=wrap;rounded=0;fontSize=38;" vertex="1" parent="o4NIW-_CmcYcTrLImoJY-17">
          <mxGeometry x="430" y="180" width="160" height="60" as="geometry" />
        </mxCell>
        <mxCell id="o4NIW-_CmcYcTrLImoJY-29" value="MongoDB" style="text;html=1;align=center;verticalAlign=middle;whiteSpace=wrap;rounded=0;fontSize=38;" vertex="1" parent="o4NIW-_CmcYcTrLImoJY-17">
          <mxGeometry x="850" y="280" width="160" height="60" as="geometry" />
        </mxCell>
        <mxCell id="o4NIW-_CmcYcTrLImoJY-21" value="" style="group" vertex="1" connectable="0" parent="1">
          <mxGeometry x="2680" y="200" width="480" height="760" as="geometry" />
        </mxCell>
        <mxCell id="o4NIW-_CmcYcTrLImoJY-22" value="" style="rounded=0;whiteSpace=wrap;html=1;" vertex="1" parent="o4NIW-_CmcYcTrLImoJY-21">
          <mxGeometry width="480" height="760" as="geometry" />
        </mxCell>
        <mxCell id="o4NIW-_CmcYcTrLImoJY-23" value="" style="rounded=0;whiteSpace=wrap;html=1;" vertex="1" parent="o4NIW-_CmcYcTrLImoJY-21">
          <mxGeometry width="258.46153846153845" height="60" as="geometry" />
        </mxCell>
        <mxCell id="o4NIW-_CmcYcTrLImoJY-24" value="Cache Servers" style="text;html=1;align=center;verticalAlign=middle;whiteSpace=wrap;rounded=0;fontSize=38;" vertex="1" parent="o4NIW-_CmcYcTrLImoJY-21">
          <mxGeometry width="258.46153846153845" height="60" as="geometry" />
        </mxCell>
        <mxCell id="o4NIW-_CmcYcTrLImoJY-30" value="" style="image;sketch=0;aspect=fixed;html=1;points=[];align=center;fontSize=12;image=img/lib/mscae/Cache_Redis_Product.svg;" vertex="1" parent="o4NIW-_CmcYcTrLImoJY-21">
          <mxGeometry x="162.62" y="100" width="154.76" height="130" as="geometry" />
        </mxCell>
        <mxCell id="o4NIW-_CmcYcTrLImoJY-31" value="" style="image;sketch=0;aspect=fixed;html=1;points=[];align=center;fontSize=12;image=img/lib/mscae/Cache_Redis_Product.svg;" vertex="1" parent="o4NIW-_CmcYcTrLImoJY-21">
          <mxGeometry x="162.62" y="260" width="154.76" height="130" as="geometry" />
        </mxCell>
        <mxCell id="o4NIW-_CmcYcTrLImoJY-32" value="" style="image;sketch=0;aspect=fixed;html=1;points=[];align=center;fontSize=12;image=img/lib/mscae/Cache_Redis_Product.svg;" vertex="1" parent="o4NIW-_CmcYcTrLImoJY-21">
          <mxGeometry x="162.62" y="420" width="154.76" height="130" as="geometry" />
        </mxCell>
        <mxCell id="o4NIW-_CmcYcTrLImoJY-33" value=". . ." style="text;html=1;align=center;verticalAlign=middle;whiteSpace=wrap;rounded=0;fontSize=38;" vertex="1" parent="o4NIW-_CmcYcTrLImoJY-21">
          <mxGeometry x="160" y="610" width="160" height="60" as="geometry" />
        </mxCell>
        <mxCell id="o4NIW-_CmcYcTrLImoJY-40" style="edgeStyle=orthogonalEdgeStyle;rounded=0;orthogonalLoop=1;jettySize=auto;html=1;exitX=1;exitY=0.5;exitDx=0;exitDy=0;entryX=0.048;entryY=0.462;entryDx=0;entryDy=0;entryPerimeter=0;curved=1;strokeWidth=2;" edge="1" parent="1" source="o4NIW-_CmcYcTrLImoJY-38" target="o4NIW-_CmcYcTrLImoJY-30">
          <mxGeometry relative="1" as="geometry" />
        </mxCell>
        <mxCell id="o4NIW-_CmcYcTrLImoJY-42" style="edgeStyle=orthogonalEdgeStyle;rounded=0;orthogonalLoop=1;jettySize=auto;html=1;exitX=1;exitY=0.5;exitDx=0;exitDy=0;entryX=0.002;entryY=0.577;entryDx=0;entryDy=0;entryPerimeter=0;curved=1;strokeWidth=2;" edge="1" parent="1" source="o4NIW-_CmcYcTrLImoJY-38" target="o4NIW-_CmcYcTrLImoJY-32">
          <mxGeometry relative="1" as="geometry" />
        </mxCell>
        <mxCell id="o4NIW-_CmcYcTrLImoJY-44" style="edgeStyle=orthogonalEdgeStyle;rounded=0;orthogonalLoop=1;jettySize=auto;html=1;exitX=1;exitY=0.5;exitDx=0;exitDy=0;entryX=0.041;entryY=0.531;entryDx=0;entryDy=0;entryPerimeter=0;curved=1;strokeWidth=2;" edge="1" parent="1" source="o4NIW-_CmcYcTrLImoJY-38" target="o4NIW-_CmcYcTrLImoJY-31">
          <mxGeometry relative="1" as="geometry" />
        </mxCell>
        <mxCell id="o4NIW-_CmcYcTrLImoJY-45" style="edgeStyle=orthogonalEdgeStyle;rounded=0;orthogonalLoop=1;jettySize=auto;html=1;exitX=0.5;exitY=1;exitDx=0;exitDy=0;curved=1;strokeWidth=2;" edge="1" parent="1" source="o4NIW-_CmcYcTrLImoJY-38" target="o4NIW-_CmcYcTrLImoJY-1">
          <mxGeometry relative="1" as="geometry" />
        </mxCell>
        <mxCell id="o4NIW-_CmcYcTrLImoJY-46" style="edgeStyle=orthogonalEdgeStyle;rounded=0;orthogonalLoop=1;jettySize=auto;html=1;exitX=0.5;exitY=1;exitDx=0;exitDy=0;curved=1;strokeWidth=2;" edge="1" parent="1" source="o4NIW-_CmcYcTrLImoJY-38" target="o4NIW-_CmcYcTrLImoJY-25">
          <mxGeometry relative="1" as="geometry" />
        </mxCell>
        <mxCell id="o4NIW-_CmcYcTrLImoJY-47" style="edgeStyle=orthogonalEdgeStyle;rounded=0;orthogonalLoop=1;jettySize=auto;html=1;exitX=0.5;exitY=1;exitDx=0;exitDy=0;curved=1;strokeWidth=2;" edge="1" parent="1" source="o4NIW-_CmcYcTrLImoJY-38" target="o4NIW-_CmcYcTrLImoJY-26">
          <mxGeometry relative="1" as="geometry" />
        </mxCell>
        <mxCell id="o4NIW-_CmcYcTrLImoJY-48" style="edgeStyle=orthogonalEdgeStyle;rounded=0;orthogonalLoop=1;jettySize=auto;html=1;exitX=0.5;exitY=1;exitDx=0;exitDy=0;entryX=0.5;entryY=0;entryDx=0;entryDy=0;entryPerimeter=0;curved=1;strokeWidth=2;" edge="1" parent="1" source="o4NIW-_CmcYcTrLImoJY-38" target="o4NIW-_CmcYcTrLImoJY-27">
          <mxGeometry relative="1" as="geometry" />
        </mxCell>
        <mxCell id="o4NIW-_CmcYcTrLImoJY-14" value="" style="rounded=0;whiteSpace=wrap;html=1;" vertex="1" parent="1">
          <mxGeometry x="1200" y="160" width="210" height="60" as="geometry" />
        </mxCell>
        <mxCell id="o4NIW-_CmcYcTrLImoJY-15" value="Services" style="text;html=1;align=center;verticalAlign=middle;whiteSpace=wrap;rounded=0;fontSize=38;" vertex="1" parent="1">
          <mxGeometry x="1200" y="160" width="210" height="60" as="geometry" />
        </mxCell>
        <mxCell id="o4NIW-_CmcYcTrLImoJY-50" value="Spring Cloud Gateway" style="text;html=1;align=center;verticalAlign=middle;whiteSpace=wrap;rounded=0;fontSize=38;" vertex="1" parent="1">
          <mxGeometry x="1110" y="330" width="230" height="100" as="geometry" />
        </mxCell>
      </root>
    </mxGraphModel>
  </diagram>
</mxfile>
